<svg width="1440" height="447" viewBox="0 0 1440 447" fill="none" xmlns="http://www.w3.org/2000/svg">
<rect width="1440" height="447" fill="#EFEFEF"/>
<path fill-rule="evenodd" clip-rule="evenodd" d="M462.128 94.4114C462.128 95.4985 463.022 96.3879 464.114 96.3879C465.206 96.3879 466.099 95.4985 466.099 94.4114V94.2928V90.5771V90.5375V90.4585V64.6854C466.099 62.8868 465.404 61.2068 464.153 59.9814C462.803 58.6177 460.917 57.9061 458.952 58.0247C455.458 58.2421 452.718 61.2661 452.718 64.8831V92.6919C452.718 93.7789 453.612 94.6683 454.703 94.6683C455.795 94.6683 456.689 93.7789 456.689 92.6919V64.8831C456.689 63.3612 457.82 62.0567 459.21 61.9579C460.004 61.9184 460.759 62.1951 461.334 62.7682C461.85 63.2624 462.128 63.9344 462.128 64.6656V94.4114ZM494.353 109.274V87.9287C494.353 84.6478 491.99 81.9005 488.754 81.3668C486.928 81.0704 485.141 81.5447 483.732 82.5725C482.719 81.1494 481.171 80.1217 479.324 79.8252C477.498 79.5287 475.711 80.0031 474.301 81.0506C473.706 80.181 472.892 79.4694 471.919 78.9555C470.946 78.4614 469.755 78.837 469.239 79.8054C468.743 80.7739 469.12 81.9598 470.093 82.4737C470.966 82.9282 471.542 83.8374 471.542 84.8454C471.542 84.8849 471.542 84.9245 471.562 84.964V94.4115C471.562 95.4985 472.455 96.3879 473.547 96.3879C474.639 96.3879 475.532 95.4985 475.532 94.4115V85.8336C475.612 85.715 475.671 85.5965 475.711 85.4779C476.168 84.2525 477.418 83.5212 478.689 83.7386C480.019 83.9362 480.972 85.0628 480.972 86.4068V94.4115C480.972 95.4985 481.865 96.3879 482.957 96.3879C484.049 96.3879 484.943 95.4985 484.943 94.4115V87.4939C484.982 87.4148 485.002 87.3555 485.022 87.2765C485.359 85.9325 486.709 85.0233 488.099 85.2605C489.429 85.4779 490.382 86.6045 490.382 87.9287V108.978C490.382 109.027 490.377 109.077 490.372 109.126C490.367 109.176 490.362 109.225 490.362 109.274V109.275C490.362 109.334 490.362 109.373 490.382 109.433C490.342 113.86 488.595 118.01 485.459 121.133C478.887 127.675 468.187 127.675 461.616 121.133C461.516 121.034 461.417 120.955 461.318 120.876L461.318 120.876L440.631 100.282C440.115 99.7677 439.837 99.0957 439.837 98.3644C439.837 97.6331 440.115 96.9611 440.631 96.4472C441.664 95.4195 443.45 95.4195 444.483 96.4472L453.297 105.223C454.072 105.994 455.322 105.994 456.097 105.223C456.891 104.452 456.891 103.207 456.097 102.436L447.282 93.6604C444.761 91.1306 440.353 91.1306 437.812 93.6604C436.562 94.9056 435.867 96.5856 435.867 98.3644C435.867 100.143 436.562 101.823 437.812 103.068L458.777 123.96C458.896 124.078 459.035 124.177 459.174 124.256C463.184 128.09 468.366 129.988 473.547 129.988C478.868 129.988 484.208 127.972 488.258 123.92C492.189 120.007 494.353 114.809 494.353 109.274Z" fill="#391B8B"/>
<g clip-path="url(#clip0)">
<path fill-rule="evenodd" clip-rule="evenodd" d="M213.034 72.7149C225.788 73.0309 237.985 78.5005 246.66 87.8207C250.103 91.533 250.103 97.3383 246.66 101.051C237.985 110.371 225.788 115.84 213.034 116.156C212.838 116.156 212.641 116.161 212.442 116.166C212.238 116.171 212.032 116.176 211.82 116.176C211.609 116.176 211.403 116.171 211.199 116.166C211 116.161 210.803 116.156 210.607 116.156C197.873 115.84 185.676 110.371 177 101.051C173.538 97.3383 173.538 91.533 177 87.8207C185.954 78.2043 198.649 72.6952 211.82 72.6952C212.032 72.6952 212.238 72.7002 212.442 72.7052C212.641 72.7101 212.838 72.7149 213.034 72.7149ZM211.801 112.227C212.139 112.227 212.477 112.227 212.795 112.207C222.227 111.674 229.728 103.914 229.728 94.4356C229.728 84.9575 222.227 77.1973 212.795 76.6642C212.477 76.6444 212.139 76.6444 211.801 76.6444C199.743 76.6444 188.103 81.6994 179.905 90.5062C177.836 92.7177 177.836 96.1535 179.905 98.3651C184.323 103.104 189.735 106.757 195.664 109.107C192.082 105.237 189.914 100.083 189.914 94.4356C189.914 92.54 190.152 90.6444 190.63 88.8475C190.948 87.7812 192.003 87.1691 193.077 87.4455C194.132 87.722 194.769 88.808 194.49 89.8545C194.092 91.3355 193.893 92.8757 193.893 94.4356C193.893 103.914 201.394 111.674 210.806 112.207C211.124 112.227 211.462 112.227 211.801 112.227ZM227.937 109.107C233.886 106.757 239.298 103.104 243.716 98.3651C245.785 96.1535 245.785 92.7177 243.716 90.5062C239.298 85.7671 233.886 82.1141 227.937 79.7643C231.519 83.6345 233.707 88.7882 233.707 94.4356C233.707 100.083 231.519 105.237 227.937 109.107ZM203.028 94.4358C203.028 99.2539 206.968 103.164 211.823 103.164C216.678 103.164 220.617 99.2539 220.617 94.4358C220.617 89.6178 216.678 85.7081 211.823 85.7081C206.968 85.7081 203.028 89.6178 203.028 94.4358ZM207.008 94.4358C207.008 91.7898 209.176 89.6573 211.823 89.6573C214.469 89.6573 216.638 91.7898 216.638 94.4358C216.638 97.0818 214.489 99.2144 211.823 99.2144C209.156 99.2144 207.008 97.0818 207.008 94.4358Z" fill="#CB7108"/>
</g>
<path fill-rule="evenodd" clip-rule="evenodd" d="M709.207 118.944C712.335 122.836 716.907 124.989 721.817 124.989C722.668 124.989 723.539 124.91 724.39 124.811C731.041 123.784 736.524 118.47 737.731 111.892C738.127 109.68 738.108 107.488 737.633 105.354C736.801 101.562 737.712 97.5122 740.186 93.9764C742.482 90.6974 743.71 86.8653 743.729 82.8752C743.808 72.248 735.218 63.3394 724.588 63.0234C719.184 62.8456 714.097 64.8209 710.237 68.574C706.377 72.3271 704.239 77.3443 704.239 82.7172C704.239 83.8036 705.13 84.6925 706.218 84.6925C707.307 84.6925 708.198 83.8036 708.198 82.7172C708.198 78.411 709.9 74.4011 713.008 71.4184C716.096 68.416 720.154 66.8357 724.489 66.974C732.842 67.211 739.85 74.4801 739.79 82.8357C739.77 86.0357 738.781 89.0974 736.96 91.7048C733.832 96.169 732.704 101.305 733.792 106.204C734.168 107.804 734.188 109.483 733.872 111.162C732.941 116.1 728.824 120.11 723.816 120.88C719.382 121.552 715.067 119.912 712.295 116.455C711.602 115.606 710.355 115.488 709.504 116.159C708.653 116.85 708.514 118.095 709.207 118.944ZM731.436 91.251C733.911 89.0979 735.336 85.9967 735.336 82.7177C735.336 76.4757 730.249 71.3794 723.993 71.3794C717.718 71.3794 712.631 76.4757 712.631 82.7177C712.631 88.5251 711.681 92.5942 710.592 95.3794C709.128 99.0337 707.425 100.416 707.346 100.476C706.475 101.108 706.277 102.332 706.891 103.221C707.287 103.755 707.9 104.051 708.514 104.051C708.91 104.051 709.306 103.932 709.662 103.695C709.82 103.597 711.879 102.076 713.7 98.1251H718.332C721.341 98.1251 723.795 100.574 723.795 103.577C723.795 106.599 721.341 109.049 718.332 109.049C717.224 109.049 716.353 109.918 716.353 111.024C716.353 112.11 717.224 112.999 718.332 112.999C723.518 112.999 727.754 108.772 727.754 103.577C727.754 98.4016 723.518 94.1745 718.332 94.1745H715.165C715.996 91.2313 716.59 87.4782 716.59 82.7177C716.59 78.6486 719.916 75.33 723.993 75.33C728.071 75.33 731.377 78.6486 731.377 82.7177C731.377 84.851 730.446 86.8658 728.843 88.2881C728.012 88.9992 727.933 90.2436 728.645 91.0732C729.041 91.5078 729.595 91.7448 730.13 91.7448C730.605 91.7448 731.06 91.5868 731.436 91.251Z" fill="#0E3C66"/>
<path fill-rule="evenodd" clip-rule="evenodd" d="M1000.47 82.5913C1000.47 79.8715 999.814 72.9733 993.924 67.7898C987.837 62.4486 978.193 60.5565 965.267 62.1727C954.99 63.4538 942.697 68.1642 941.946 77.191C941.63 80.8963 942.322 83.6162 944.022 85.5477C946.255 88.0507 950.464 89.3712 956.927 89.6078C957.876 89.6472 960.01 89.3713 962.046 88.169C962.994 87.6171 964.2 87.9325 964.753 88.8785C965.307 89.8048 964.991 91.0268 964.062 91.5787C961.907 92.8598 959.595 93.3919 957.856 93.5299C958.429 94.4365 959.299 95.4614 960.485 96.1512C964.279 98.3389 968.449 98.1812 971.315 96.4271C971.928 96.0526 972.698 96.0329 973.311 96.3877C973.943 96.7227 974.319 97.3929 974.319 98.1024C974.319 100.704 975.347 103.148 977.224 104.981C979.082 106.794 981.473 107.799 984.161 107.72C988.272 107.642 991.948 105.158 993.529 101.374C993.964 100.369 995.13 99.8959 996.118 100.31C997.126 100.724 997.6 101.887 997.185 102.892C994.991 108.115 989.912 111.564 984.24 111.662H983.983C980.386 111.662 977.007 110.302 974.457 107.78C973.963 107.307 973.528 106.794 973.113 106.262L971.987 114.027C972.046 114.954 972.817 115.703 973.785 115.703H975.92C976.789 115.703 977.521 115.092 977.698 114.224C977.916 113.16 978.924 112.451 980.011 112.667C981.098 112.865 981.789 113.909 981.572 114.973C981.038 117.674 978.667 119.644 975.92 119.644H973.785C970.603 119.644 968.014 117.063 968.014 113.909C968.014 113.86 968.019 113.811 968.024 113.761C968.029 113.712 968.034 113.663 968.034 113.613L969.852 101.256C966.295 102.182 962.243 101.709 958.508 99.5609C955.741 97.9841 954.101 95.3037 953.429 93.3131C947.599 92.7021 943.646 91.0465 941.077 88.169C938.646 85.4294 937.618 81.6256 938.014 76.856C938.962 65.4838 953.034 59.7287 964.773 58.2506C978.884 56.4767 989.576 58.7039 996.533 64.8334C1003.65 71.0812 1004.42 79.3393 1004.42 82.5913C1004.42 93.1554 994.063 101.729 981.355 101.729C980.248 101.729 979.378 100.842 979.378 99.7579C979.378 98.674 980.248 97.787 981.355 97.787C991.889 97.787 1000.47 90.9677 1000.47 82.5913ZM983.781 92.3871C983.03 92.3871 982.299 91.9535 981.963 91.2243C981.528 90.2388 981.963 89.0562 982.971 88.6226C983.702 88.3073 984.908 87.6372 985.303 87.4007C987.24 86.3758 988.584 84.6414 989.058 82.572L989.355 81.2909C989.592 80.2266 990.639 79.5565 991.726 79.793C992.794 80.0295 993.465 81.0938 993.228 82.1581L992.932 83.4392C992.22 86.632 990.125 89.3322 987.24 90.8498C987.24 90.8498 985.679 91.7564 984.611 92.2294C984.315 92.3477 984.038 92.3871 983.781 92.3871ZM982.952 71.2191L986.549 69.6424C987.537 69.2088 987.992 68.046 987.557 67.0408C987.122 66.0554 985.956 65.602 984.948 66.0356L981.786 67.435C981.134 67.1394 980.502 66.8831 980.502 66.8831C977.972 65.7597 972.438 65.6809 969.889 66.1342C968.821 66.3116 968.09 67.3364 968.288 68.4007C968.466 69.4847 969.474 70.214 970.561 70.0169C972.774 69.6424 976.806 69.8198 978.585 70.3914C976.391 73.7025 975.956 77.1516 975.936 77.329C975.798 78.3933 976.569 79.3787 977.656 79.5167C977.695 79.5167 977.735 79.5216 977.774 79.5265C977.814 79.5315 977.853 79.5364 977.893 79.5364C978.881 79.5364 979.731 78.7874 979.849 77.802C979.849 77.7626 980.363 73.9784 982.952 71.2191ZM958.326 81.1328C958.128 81.1328 957.911 81.0934 957.693 81.0343C956.665 80.6992 956.092 79.5758 956.448 78.5509C956.547 78.2356 957.535 75.5157 960.401 74.0967C962.476 73.0718 964.907 73.0127 967.634 73.939C968.662 74.2938 969.215 75.3975 968.879 76.4421C968.523 77.4669 967.417 78.0385 966.369 77.6837C964.67 77.1122 963.266 77.0925 962.179 77.6443C960.886 78.2894 960.327 79.5537 960.221 79.7927C960.211 79.8166 960.205 79.8302 960.203 79.832C959.907 80.6007 959.136 81.1328 958.326 81.1328ZM947.516 83.6358C947.892 84.2074 948.524 84.503 949.157 84.503C949.532 84.503 949.908 84.4045 950.263 84.1483C951.173 83.5373 951.41 82.3153 950.797 81.4087C948.717 78.3751 950.671 75.2637 950.795 75.0661L950.797 75.0624C951.41 74.1754 951.173 72.9535 950.263 72.3425C949.354 71.7315 948.129 71.968 947.516 72.8746C947.358 73.0914 943.919 78.3144 947.516 83.6358Z" fill="#8C2B2B"/>
<path d="M1224.7 84.3684C1224.61 83.9867 1224.41 83.6033 1224.11 83.3022C1222.87 82.0573 1210.24 71.0855 1204.29 71.0855C1201.05 71.0855 1198.83 72.7212 1197.05 74.0354C1195.98 74.8251 1195.05 75.5068 1194.34 75.5076C1193.64 75.5068 1192.71 74.8251 1191.64 74.0349C1189.85 72.7206 1187.63 71.0855 1184.4 71.0855C1178.45 71.0855 1165.82 82.0573 1164.57 83.3022C1164.25 83.6282 1164.04 84.0339 1163.96 84.467L1163.91 85.0048C1163.89 85.5998 1164.12 86.1779 1164.57 86.6341C1165.18 87.2381 1165.95 88.1901 1166.84 89.2939C1169.1 92.1002 1172.2 95.9432 1176.59 99.1256C1182.16 103.163 1188.1 105.21 1194.25 105.21C1200.39 105.21 1206.41 103.073 1212.14 98.8571C1216.62 95.5611 1219.84 91.5714 1221.97 88.9314C1222.76 87.9581 1224.46 85.8929 1224.59 85.636C1224.71 85.4002 1224.81 84.8412 1224.7 84.3684ZM1210.46 96.5786C1205.23 100.429 1199.77 102.381 1194.25 102.381C1188.71 102.381 1183.33 100.515 1178.25 96.8355C1174.17 93.8739 1168.18 87.2114 1168.52 86.871C1168.63 86.7566 1171.2 88.0278 1172.51 88.6418C1177.76 91.0975 1185.7 94.8083 1194.25 94.8083C1203.03 94.8083 1211.08 91.0065 1216.4 88.4904C1217.69 87.8836 1219.98 86.6969 1220.01 86.8646C1220.06 87.1585 1214.65 93.4997 1210.46 96.5786ZM1175.63 86.9709C1175.63 86.6973 1190.45 85.4294 1193.65 85.4117C1194.11 85.4094 1194.56 85.4081 1195.01 85.4081C1198.47 85.4081 1213.12 86.5561 1213.12 86.9064C1213.12 87.3929 1201.35 91.9804 1194.25 91.9804C1187.28 91.9802 1175.63 87.5812 1175.63 86.9709ZM1219.2 84.2636C1217.61 84.2636 1215.53 84.1604 1213.11 84.0755C1211.05 84.0031 1208.6 83.7225 1206.01 83.425C1202.38 83.0095 1198.63 82.5794 1195.01 82.5794C1194.55 82.5794 1194.09 82.5808 1193.64 82.583C1190.27 82.6015 1186.56 83.0338 1182.98 83.452C1180.3 83.7638 1177.78 84.0586 1175.71 84.137C1174.35 84.1884 1173.38 84.2384 1172.6 84.2785C1171.54 84.3338 1170.77 84.3892 1169.63 84.3892C1168.4 84.3892 1167.77 84.2433 1168.17 83.9041C1169.93 82.4007 1171.62 80.9777 1174.55 78.8978C1179.02 75.7302 1182.61 73.9138 1184.4 73.9138C1186.7 73.9138 1188.36 75.133 1189.96 76.3125C1191.37 77.3522 1192.7 78.3341 1194.34 78.3361C1195.98 78.3341 1197.31 77.3522 1198.72 76.3125C1200.33 75.133 1201.98 73.9138 1204.29 73.9138C1206.08 73.9138 1209.67 75.7302 1214.13 78.8978C1216.97 80.9133 1219.08 82.4008 1220.64 83.9512C1220.95 84.2711 1220.38 84.2636 1219.2 84.2636Z" fill="#B90F0F"/>
<defs>
<clipPath id="clip0">
<rect width="74.8531" height="43.4809" fill="white" transform="translate(174.395 72.6952)"/>
</clipPath>
</defs>
</svg>
