<svg width="752" height="484" viewBox="0 0 752 484" fill="none" xmlns="http://www.w3.org/2000/svg">
<g filter="url(#filter0_d)">
<rect x="16" y="14" width="720" height="452" rx="20" fill="white"/>
</g>
<path d="M262.237 420H263.629L265.245 409.696H268.573L268.765 408.56H260.717L260.525 409.696H263.853L262.237 420ZM268.774 420H270.102L270.87 415.136C271.126 413.552 272.326 412.624 273.718 412.624C274.87 412.624 275.382 413.296 275.158 414.688L274.31 420H275.638L276.438 414.992C276.838 412.464 275.75 411.488 274.006 411.488C272.646 411.488 271.686 412.304 271.19 413.12L272.054 407.632H270.726L268.774 420ZM280.642 409.888C281.122 409.888 281.522 409.472 281.522 408.992C281.522 408.512 281.138 408.128 280.658 408.128C280.178 408.128 279.762 408.544 279.762 409.024C279.762 409.504 280.162 409.888 280.642 409.888ZM278.274 420H279.602L280.93 411.632H279.602L278.274 420ZM285.312 420.144C287.184 420.144 288.368 419.136 288.368 417.6C288.368 416.064 287.44 415.536 285.776 415.12C284.464 414.8 284.08 414.48 284.08 413.84C284.08 413.056 284.672 412.592 285.712 412.592C286.752 412.592 287.408 413.104 287.456 413.904H288.704C288.608 412.208 287.376 411.488 285.744 411.488C284.24 411.488 282.832 412.32 282.832 413.92C282.832 415.184 283.504 415.84 285.376 416.304C286.64 416.624 287.072 416.944 287.072 417.664C287.072 418.528 286.528 419.04 285.36 419.04C283.872 419.04 283.408 418.32 283.344 417.424H282.048C282.08 418.864 283.088 420.144 285.312 420.144ZM296.642 409.888C297.122 409.888 297.522 409.472 297.522 408.992C297.522 408.512 297.138 408.128 296.658 408.128C296.178 408.128 295.762 408.544 295.762 409.024C295.762 409.504 296.162 409.888 296.642 409.888ZM294.274 420H295.602L296.93 411.632H295.602L294.274 420ZM301.312 420.144C303.184 420.144 304.368 419.136 304.368 417.6C304.368 416.064 303.44 415.536 301.776 415.12C300.464 414.8 300.08 414.48 300.08 413.84C300.08 413.056 300.672 412.592 301.712 412.592C302.752 412.592 303.408 413.104 303.456 413.904H304.704C304.608 412.208 303.376 411.488 301.744 411.488C300.24 411.488 298.832 412.32 298.832 413.92C298.832 415.184 299.504 415.84 301.376 416.304C302.64 416.624 303.072 416.944 303.072 417.664C303.072 418.528 302.528 419.04 301.36 419.04C299.872 419.04 299.408 418.32 299.344 417.424H298.048C298.08 418.864 299.088 420.144 301.312 420.144ZM312.722 420.128C313.73 420.128 314.642 419.632 315.234 418.672C315.202 419.04 315.202 419.552 315.25 420H316.498C316.418 419.296 316.466 418.592 316.642 417.504L317.106 414.592C317.458 412.336 316.146 411.488 314.274 411.488C312.93 411.488 311.282 412.096 310.898 414.096H312.226C312.45 413.056 313.138 412.592 314.226 412.592C315.57 412.592 316.002 413.2 315.794 414.48L315.698 415.088H314.082C311.89 415.088 310.018 415.696 310.018 417.76C310.018 419.184 311.01 420.128 312.722 420.128ZM312.898 419.088C311.826 419.088 311.33 418.496 311.33 417.76C311.33 416.48 312.242 416.032 314.114 416.032H315.538L315.394 416.944C315.17 418.4 314.146 419.088 312.898 419.088ZM325.022 420H326.718L330.99 411.632H329.582L326.078 418.72L324.782 411.632H323.374L325.022 420ZM333.705 409.888C334.185 409.888 334.585 409.472 334.585 408.992C334.585 408.512 334.201 408.128 333.721 408.128C333.241 408.128 332.825 408.544 332.825 409.024C332.825 409.504 333.225 409.888 333.705 409.888ZM331.337 420H332.665L333.993 411.632H332.665L331.337 420ZM338.887 420.144C340.119 420.144 341.159 419.472 341.751 418.48C341.687 418.96 341.655 419.52 341.687 420H342.951C342.919 419.312 342.951 418.64 343.127 417.504L344.679 407.632H343.351L342.487 413.152C342.103 412.352 341.287 411.488 339.687 411.488C336.999 411.488 335.351 413.776 335.351 416.448C335.351 418.704 336.807 420.144 338.887 420.144ZM339.047 419.04C337.607 419.04 336.759 418.048 336.759 416.384C336.759 414.208 337.847 412.592 339.735 412.592C341.159 412.592 342.183 413.568 342.183 415.152C342.183 417.744 340.823 419.04 339.047 419.04ZM346.632 416.624C346.632 416.432 346.632 416.256 346.648 416.08H352.84L352.888 415.776C353.336 412.912 351.912 411.504 349.64 411.504C347.176 411.504 345.272 413.6 345.272 416.56C345.272 418.656 346.616 420.144 348.888 420.144C350.584 420.144 352.056 419.312 352.568 417.584H351.24C350.92 418.544 350.104 419.04 348.936 419.04C347.336 419.04 346.632 418.144 346.632 416.624ZM349.56 412.592C351.08 412.592 351.784 413.328 351.656 415.008H346.808C347.224 413.296 348.376 412.592 349.56 412.592ZM357.844 420.128C360.468 420.128 362.308 418.032 362.308 415.184C362.308 413.024 360.884 411.504 358.564 411.504C356.052 411.504 354.116 413.616 354.116 416.416C354.116 418.544 355.524 420.128 357.844 420.128ZM357.908 419.04C356.276 419.04 355.492 418 355.492 416.416C355.492 414.24 356.692 412.592 358.484 412.592C360.084 412.592 360.916 413.632 360.916 415.216C360.916 417.392 359.796 419.04 357.908 419.04ZM370.316 420.128C371.324 420.128 372.236 419.632 372.828 418.672C372.796 419.04 372.796 419.552 372.844 420H374.092C374.012 419.296 374.06 418.592 374.236 417.504L374.7 414.592C375.052 412.336 373.74 411.488 371.868 411.488C370.524 411.488 368.876 412.096 368.492 414.096H369.82C370.044 413.056 370.732 412.592 371.82 412.592C373.164 412.592 373.596 413.2 373.388 414.48L373.292 415.088H371.676C369.484 415.088 367.612 415.696 367.612 417.76C367.612 419.184 368.604 420.128 370.316 420.128ZM370.492 419.088C369.42 419.088 368.924 418.496 368.924 417.76C368.924 416.48 369.836 416.032 371.708 416.032H373.132L372.988 416.944C372.764 418.4 371.74 419.088 370.492 419.088ZM380.973 420.144C383.597 420.144 385.149 417.856 385.149 415.168C385.149 412.928 383.741 411.488 381.789 411.488C380.557 411.488 379.421 412.176 378.861 413.104L379.725 407.632H378.397L376.445 420H377.773L378.029 418.432C378.397 419.248 379.277 420.144 380.973 420.144ZM380.893 419.056C379.309 419.056 378.317 418.064 378.317 416.448C378.317 414.048 379.725 412.576 381.533 412.576C382.893 412.576 383.741 413.536 383.741 415.248C383.741 417.424 382.717 419.056 380.893 419.056ZM390.141 420.128C392.765 420.128 394.605 418.032 394.605 415.184C394.605 413.024 393.181 411.504 390.861 411.504C388.349 411.504 386.413 413.616 386.413 416.416C386.413 418.544 387.821 420.128 390.141 420.128ZM390.205 419.04C388.573 419.04 387.789 418 387.789 416.416C387.789 414.24 388.989 412.592 390.781 412.592C392.381 412.592 393.213 413.632 393.213 415.216C393.213 417.392 392.093 419.04 390.205 419.04ZM403.947 411.632H402.619L401.851 416.496C401.595 418.08 400.427 419.008 399.035 419.008C397.883 419.008 397.419 418.256 397.627 416.944L398.475 411.632H397.147L396.347 416.64C395.963 419.072 397.003 420.144 398.747 420.144C400.107 420.144 401.067 419.344 401.659 418.336C401.579 418.896 401.547 419.52 401.579 420H402.843C402.811 419.312 402.843 418.64 403.019 417.504L403.947 411.632ZM407.897 420.112C408.281 420.112 408.633 420.048 408.921 419.92L409.097 418.816C408.793 418.928 408.425 418.992 408.105 418.992C407.353 418.992 407.033 418.672 407.177 417.76L407.977 412.752H409.881L410.057 411.632H408.153L408.457 409.728H407.129L406.825 411.632H405.625L405.449 412.752H406.649L405.865 417.712C405.657 419.072 406.249 420.112 407.897 420.112ZM417.504 420.128C418.512 420.128 419.424 419.632 420.016 418.672C419.984 419.04 419.984 419.552 420.032 420H421.28C421.2 419.296 421.248 418.592 421.424 417.504L421.888 414.592C422.24 412.336 420.928 411.488 419.056 411.488C417.712 411.488 416.064 412.096 415.68 414.096H417.008C417.232 413.056 417.92 412.592 419.008 412.592C420.352 412.592 420.784 413.2 420.576 414.48L420.48 415.088H418.864C416.672 415.088 414.8 415.696 414.8 417.76C414.8 419.184 415.792 420.128 417.504 420.128ZM417.68 419.088C416.608 419.088 416.112 418.496 416.112 417.76C416.112 416.48 417.024 416.032 418.896 416.032H420.32L420.176 416.944C419.952 418.4 418.928 419.088 417.68 419.088ZM427.489 420.128C429.345 420.128 430.833 419.008 431.185 417.024H429.937C429.713 418.32 428.689 419.04 427.521 419.04C425.809 419.04 424.945 418.08 424.945 416.32C424.945 413.904 426.193 412.608 427.857 412.608C429.025 412.608 429.889 413.008 430.049 414.448H431.313C431.201 412.416 429.761 411.504 427.921 411.504C425.649 411.504 423.585 413.232 423.585 416.32C423.585 418.56 424.977 420.128 427.489 420.128ZM436.348 420.128C438.204 420.128 439.692 419.008 440.044 417.024H438.796C438.572 418.32 437.548 419.04 436.38 419.04C434.668 419.04 433.804 418.08 433.804 416.32C433.804 413.904 435.052 412.608 436.716 412.608C437.884 412.608 438.748 413.008 438.908 414.448H440.172C440.06 412.416 438.62 411.504 436.78 411.504C434.508 411.504 432.444 413.232 432.444 416.32C432.444 418.56 433.836 420.128 436.348 420.128ZM442.648 416.624C442.648 416.432 442.648 416.256 442.664 416.08H448.856L448.904 415.776C449.352 412.912 447.928 411.504 445.656 411.504C443.192 411.504 441.288 413.6 441.288 416.56C441.288 418.656 442.632 420.144 444.904 420.144C446.6 420.144 448.072 419.312 448.584 417.584H447.256C446.936 418.544 446.12 419.04 444.952 419.04C443.352 419.04 442.648 418.144 442.648 416.624ZM445.576 412.592C447.096 412.592 447.8 413.328 447.672 415.008H442.824C443.24 413.296 444.392 412.592 445.576 412.592ZM453.266 420.144C455.138 420.144 456.322 419.136 456.322 417.6C456.322 416.064 455.394 415.536 453.73 415.12C452.418 414.8 452.034 414.48 452.034 413.84C452.034 413.056 452.626 412.592 453.666 412.592C454.706 412.592 455.362 413.104 455.41 413.904H456.658C456.562 412.208 455.33 411.488 453.698 411.488C452.194 411.488 450.786 412.32 450.786 413.92C450.786 415.184 451.458 415.84 453.33 416.304C454.594 416.624 455.026 416.944 455.026 417.664C455.026 418.528 454.482 419.04 453.314 419.04C451.826 419.04 451.362 418.32 451.298 417.424H450.002C450.034 418.864 451.042 420.144 453.266 420.144ZM460.797 420.144C462.669 420.144 463.853 419.136 463.853 417.6C463.853 416.064 462.925 415.536 461.261 415.12C459.949 414.8 459.565 414.48 459.565 413.84C459.565 413.056 460.157 412.592 461.197 412.592C462.237 412.592 462.893 413.104 462.941 413.904H464.189C464.093 412.208 462.861 411.488 461.229 411.488C459.725 411.488 458.317 412.32 458.317 413.92C458.317 415.184 458.989 415.84 460.861 416.304C462.125 416.624 462.557 416.944 462.557 417.664C462.557 418.528 462.013 419.04 460.845 419.04C459.357 419.04 458.893 418.32 458.829 417.424H457.533C457.565 418.864 458.573 420.144 460.797 420.144ZM467.892 409.888C468.372 409.888 468.772 409.472 468.772 408.992C468.772 408.512 468.388 408.128 467.908 408.128C467.428 408.128 467.012 408.544 467.012 409.024C467.012 409.504 467.412 409.888 467.892 409.888ZM465.524 420H466.852L468.18 411.632H466.852L465.524 420ZM474.098 420.144C476.722 420.144 478.274 417.856 478.274 415.168C478.274 412.928 476.866 411.488 474.914 411.488C473.682 411.488 472.546 412.176 471.986 413.104L472.85 407.632H471.522L469.57 420H470.898L471.154 418.432C471.522 419.248 472.402 420.144 474.098 420.144ZM474.018 419.056C472.434 419.056 471.442 418.064 471.442 416.448C471.442 414.048 472.85 412.576 474.658 412.576C476.018 412.576 476.866 413.536 476.866 415.248C476.866 417.424 475.842 419.056 474.018 419.056ZM479.634 420H480.978L482.93 407.632H481.586L479.634 420ZM484.991 416.624C484.991 416.432 484.991 416.256 485.007 416.08H491.199L491.247 415.776C491.695 412.912 490.271 411.504 487.999 411.504C485.535 411.504 483.631 413.6 483.631 416.56C483.631 418.656 484.975 420.144 487.247 420.144C488.943 420.144 490.415 419.312 490.927 417.584H489.599C489.279 418.544 488.463 419.04 487.295 419.04C485.695 419.04 484.991 418.144 484.991 416.624ZM487.919 412.592C489.439 412.592 490.143 413.328 490.015 415.008H485.167C485.583 413.296 486.735 412.592 487.919 412.592ZM233.293 441H234.749L237.661 434.648L238.381 441H239.853L243.693 432.632H242.301L239.357 439.448L238.557 432.632H237.405L234.333 439.448L233.565 432.632H232.157L233.293 441ZM245.366 437.624C245.366 437.432 245.366 437.256 245.382 437.08H251.574L251.622 436.776C252.07 433.912 250.646 432.504 248.374 432.504C245.91 432.504 244.006 434.6 244.006 437.56C244.006 439.656 245.35 441.144 247.622 441.144C249.318 441.144 250.79 440.312 251.302 438.584H249.974C249.654 439.544 248.838 440.04 247.67 440.04C246.07 440.04 245.366 439.144 245.366 437.624ZM248.294 433.592C249.814 433.592 250.518 434.328 250.39 436.008H245.542C245.958 434.296 247.11 433.592 248.294 433.592ZM257.442 441.144C260.066 441.144 261.618 438.856 261.618 436.168C261.618 433.928 260.21 432.488 258.258 432.488C257.026 432.488 255.89 433.176 255.33 434.104L256.194 428.632H254.866L252.914 441H254.242L254.498 439.432C254.866 440.248 255.746 441.144 257.442 441.144ZM257.362 440.056C255.778 440.056 254.786 439.064 254.786 437.448C254.786 435.048 256.194 433.576 258.002 433.576C259.362 433.576 260.21 434.536 260.21 436.248C260.21 438.424 259.186 440.056 257.362 440.056ZM265.937 441.144C267.809 441.144 268.993 440.136 268.993 438.6C268.993 437.064 268.065 436.536 266.401 436.12C265.089 435.8 264.705 435.48 264.705 434.84C264.705 434.056 265.297 433.592 266.337 433.592C267.377 433.592 268.033 434.104 268.081 434.904H269.329C269.233 433.208 268.001 432.488 266.369 432.488C264.865 432.488 263.457 433.32 263.457 434.92C263.457 436.184 264.129 436.84 266.001 437.304C267.265 437.624 267.697 437.944 267.697 438.664C267.697 439.528 267.153 440.04 265.985 440.04C264.497 440.04 264.033 439.32 263.969 438.424H262.673C262.705 439.864 263.713 441.144 265.937 441.144ZM273.033 430.888C273.513 430.888 273.913 430.472 273.913 429.992C273.913 429.512 273.529 429.128 273.049 429.128C272.569 429.128 272.153 429.544 272.153 430.024C272.153 430.504 272.553 430.888 273.033 430.888ZM270.665 441H271.993L273.321 432.632H271.993L270.665 441ZM277.303 441.112C277.687 441.112 278.039 441.048 278.327 440.92L278.503 439.816C278.199 439.928 277.831 439.992 277.511 439.992C276.759 439.992 276.439 439.672 276.583 438.76L277.383 433.752H279.287L279.463 432.632H277.559L277.863 430.728H276.535L276.231 432.632H275.031L274.855 433.752H276.055L275.271 438.712C275.063 440.072 275.655 441.112 277.303 441.112ZM281.413 437.624C281.413 437.432 281.413 437.256 281.429 437.08H287.621L287.669 436.776C288.117 433.912 286.693 432.504 284.421 432.504C281.957 432.504 280.053 434.6 280.053 437.56C280.053 439.656 281.397 441.144 283.669 441.144C285.365 441.144 286.837 440.312 287.349 438.584H286.021C285.701 439.544 284.885 440.04 283.717 440.04C282.117 440.04 281.413 439.144 281.413 437.624ZM284.341 433.592C285.861 433.592 286.565 434.328 286.437 436.008H281.589C282.005 434.296 283.157 433.592 284.341 433.592ZM292.031 441.144C293.903 441.144 295.087 440.136 295.087 438.6C295.087 437.064 294.159 436.536 292.495 436.12C291.183 435.8 290.799 435.48 290.799 434.84C290.799 434.056 291.391 433.592 292.431 433.592C293.471 433.592 294.127 434.104 294.175 434.904H295.423C295.327 433.208 294.095 432.488 292.463 432.488C290.959 432.488 289.551 433.32 289.551 434.92C289.551 436.184 290.223 436.84 292.095 437.304C293.359 437.624 293.791 437.944 293.791 438.664C293.791 439.528 293.247 440.04 292.079 440.04C290.591 440.04 290.127 439.32 290.063 438.424H288.767C288.799 439.864 289.807 441.144 292.031 441.144ZM296.789 442.968L299.077 439.624L297.877 439.016L295.989 442.52L296.789 442.968ZM309.219 441.128C311.843 441.128 313.683 439.032 313.683 436.184C313.683 434.024 312.259 432.504 309.939 432.504C307.427 432.504 305.491 434.616 305.491 437.416C305.491 439.544 306.899 441.128 309.219 441.128ZM309.283 440.04C307.651 440.04 306.867 439 306.867 437.416C306.867 435.24 308.067 433.592 309.859 433.592C311.459 433.592 312.291 434.632 312.291 436.216C312.291 438.392 311.171 440.04 309.283 440.04ZM314.977 441H316.305L317.073 436.136C317.329 434.552 318.529 433.624 319.921 433.624C321.089 433.624 321.585 434.296 321.361 435.688L320.513 441H321.841L322.641 435.992C323.041 433.464 321.953 432.488 320.209 432.488C318.849 432.488 317.857 433.288 317.281 434.296C317.345 433.736 317.377 433.096 317.377 432.632H316.129C316.113 433.336 316.081 433.992 315.905 435.128L314.977 441ZM331.16 441.128C332.168 441.128 333.08 440.632 333.672 439.672C333.64 440.04 333.64 440.552 333.688 441H334.936C334.856 440.296 334.904 439.592 335.08 438.504L335.544 435.592C335.896 433.336 334.584 432.488 332.712 432.488C331.368 432.488 329.72 433.096 329.336 435.096H330.664C330.888 434.056 331.576 433.592 332.664 433.592C334.008 433.592 334.44 434.2 334.232 435.48L334.136 436.088H332.52C330.328 436.088 328.456 436.696 328.456 438.76C328.456 440.184 329.448 441.128 331.16 441.128ZM331.336 440.088C330.264 440.088 329.768 439.496 329.768 438.76C329.768 437.48 330.68 437.032 332.552 437.032H333.976L333.832 437.944C333.608 439.4 332.584 440.088 331.336 440.088ZM343.46 441H345.156L349.428 432.632H348.02L344.516 439.72L343.22 432.632H341.812L343.46 441ZM350.96 437.624C350.96 437.432 350.96 437.256 350.976 437.08H357.168L357.216 436.776C357.664 433.912 356.24 432.504 353.968 432.504C351.504 432.504 349.6 434.6 349.6 437.56C349.6 439.656 350.944 441.144 353.216 441.144C354.912 441.144 356.384 440.312 356.896 438.584H355.568C355.248 439.544 354.432 440.04 353.264 440.04C351.664 440.04 350.96 439.144 350.96 437.624ZM353.888 433.592C355.408 433.592 356.112 434.328 355.984 436.008H351.136C351.552 434.296 352.704 433.592 353.888 433.592ZM358.508 441H359.836L360.524 436.648C360.86 434.52 362.028 433.816 363.708 433.736L363.9 432.488C362.252 432.52 361.516 433.24 360.812 434.344C360.876 433.704 360.908 433.096 360.908 432.632H359.66C359.644 433.336 359.612 433.992 359.436 435.128L358.508 441ZM364.759 443.912H366.167L372.487 432.632H371.063L367.879 438.632L366.375 432.632H365.015L366.999 440.056L364.759 443.912ZM379.519 441.128C380.527 441.128 381.439 440.632 382.031 439.672C381.999 440.04 381.999 440.552 382.047 441H383.295C383.215 440.296 383.263 439.592 383.439 438.504L383.903 435.592C384.255 433.336 382.943 432.488 381.071 432.488C379.727 432.488 378.079 433.096 377.695 435.096H379.023C379.247 434.056 379.935 433.592 381.023 433.592C382.367 433.592 382.799 434.2 382.591 435.48L382.495 436.088H380.879C378.687 436.088 376.815 436.696 376.815 438.76C376.815 440.184 377.807 441.128 379.519 441.128ZM379.695 440.088C378.623 440.088 378.127 439.496 378.127 438.76C378.127 437.48 379.039 437.032 380.911 437.032H382.335L382.191 437.944C381.967 439.4 380.943 440.088 379.695 440.088ZM389.505 441.128C391.361 441.128 392.849 440.008 393.201 438.024H391.953C391.729 439.32 390.705 440.04 389.537 440.04C387.825 440.04 386.961 439.08 386.961 437.32C386.961 434.904 388.209 433.608 389.873 433.608C391.041 433.608 391.905 434.008 392.065 435.448H393.329C393.217 433.416 391.777 432.504 389.937 432.504C387.665 432.504 385.601 434.232 385.601 437.32C385.601 439.56 386.993 441.128 389.505 441.128ZM398.364 441.128C400.22 441.128 401.708 440.008 402.06 438.024H400.812C400.588 439.32 399.564 440.04 398.396 440.04C396.684 440.04 395.82 439.08 395.82 437.32C395.82 434.904 397.068 433.608 398.732 433.608C399.9 433.608 400.764 434.008 400.924 435.448H402.188C402.076 433.416 400.636 432.504 398.796 432.504C396.524 432.504 394.46 434.232 394.46 437.32C394.46 439.56 395.852 441.128 398.364 441.128ZM404.663 437.624C404.663 437.432 404.663 437.256 404.679 437.08H410.871L410.919 436.776C411.367 433.912 409.943 432.504 407.671 432.504C405.207 432.504 403.303 434.6 403.303 437.56C403.303 439.656 404.647 441.144 406.919 441.144C408.615 441.144 410.087 440.312 410.599 438.584H409.271C408.951 439.544 408.135 440.04 406.967 440.04C405.367 440.04 404.663 439.144 404.663 437.624ZM407.591 433.592C409.111 433.592 409.815 434.328 409.687 436.008H404.839C405.255 434.296 406.407 433.592 407.591 433.592ZM415.281 441.144C417.153 441.144 418.337 440.136 418.337 438.6C418.337 437.064 417.409 436.536 415.745 436.12C414.433 435.8 414.049 435.48 414.049 434.84C414.049 434.056 414.641 433.592 415.681 433.592C416.721 433.592 417.377 434.104 417.425 434.904H418.673C418.577 433.208 417.345 432.488 415.713 432.488C414.209 432.488 412.801 433.32 412.801 434.92C412.801 436.184 413.473 436.84 415.345 437.304C416.609 437.624 417.041 437.944 417.041 438.664C417.041 439.528 416.497 440.04 415.329 440.04C413.841 440.04 413.377 439.32 413.313 438.424H412.017C412.049 439.864 413.057 441.144 415.281 441.144ZM422.812 441.144C424.684 441.144 425.868 440.136 425.868 438.6C425.868 437.064 424.94 436.536 423.276 436.12C421.964 435.8 421.58 435.48 421.58 434.84C421.58 434.056 422.172 433.592 423.212 433.592C424.252 433.592 424.908 434.104 424.956 434.904H426.204C426.108 433.208 424.876 432.488 423.244 432.488C421.74 432.488 420.332 433.32 420.332 434.92C420.332 436.184 421.004 436.84 422.876 437.304C424.14 437.624 424.572 437.944 424.572 438.664C424.572 439.528 424.028 440.04 422.86 440.04C421.372 440.04 420.908 439.32 420.844 438.424H419.548C419.58 439.864 420.588 441.144 422.812 441.144ZM429.908 430.888C430.388 430.888 430.788 430.472 430.788 429.992C430.788 429.512 430.404 429.128 429.924 429.128C429.444 429.128 429.028 429.544 429.028 430.024C429.028 430.504 429.428 430.888 429.908 430.888ZM427.54 441H428.868L430.196 432.632H428.868L427.54 441ZM436.114 441.144C438.738 441.144 440.29 438.856 440.29 436.168C440.29 433.928 438.882 432.488 436.93 432.488C435.698 432.488 434.562 433.176 434.002 434.104L434.866 428.632H433.538L431.586 441H432.914L433.17 439.432C433.538 440.248 434.418 441.144 436.114 441.144ZM436.034 440.056C434.45 440.056 433.458 439.064 433.458 437.448C433.458 435.048 434.866 433.576 436.674 433.576C438.034 433.576 438.882 434.536 438.882 436.248C438.882 438.424 437.858 440.056 436.034 440.056ZM441.649 441H442.993L444.945 428.632H443.601L441.649 441ZM447.007 437.624C447.007 437.432 447.007 437.256 447.023 437.08H453.215L453.263 436.776C453.711 433.912 452.287 432.504 450.015 432.504C447.551 432.504 445.647 434.6 445.647 437.56C445.647 439.656 446.991 441.144 449.263 441.144C450.959 441.144 452.431 440.312 452.943 438.584H451.615C451.295 439.544 450.479 440.04 449.311 440.04C447.711 440.04 447.007 439.144 447.007 437.624ZM449.935 433.592C451.455 433.592 452.159 434.328 452.031 436.008H447.183C447.599 434.296 448.751 433.592 449.935 433.592ZM460.277 441H461.733L464.645 434.648L465.365 441H466.837L470.677 432.632H469.285L466.341 439.448L465.541 432.632H464.389L461.317 439.448L460.549 432.632H459.141L460.277 441ZM472.351 437.624C472.351 437.432 472.351 437.256 472.367 437.08H478.559L478.607 436.776C479.055 433.912 477.631 432.504 475.359 432.504C472.895 432.504 470.991 434.6 470.991 437.56C470.991 439.656 472.335 441.144 474.607 441.144C476.303 441.144 477.775 440.312 478.287 438.584H476.959C476.639 439.544 475.823 440.04 474.655 440.04C473.055 440.04 472.351 439.144 472.351 437.624ZM475.279 433.592C476.799 433.592 477.503 434.328 477.375 436.008H472.527C472.943 434.296 474.095 433.592 475.279 433.592ZM484.427 441.144C487.051 441.144 488.603 438.856 488.603 436.168C488.603 433.928 487.195 432.488 485.243 432.488C484.011 432.488 482.875 433.176 482.315 434.104L483.179 428.632H481.851L479.899 441H481.227L481.483 439.432C481.851 440.248 482.731 441.144 484.427 441.144ZM484.347 440.056C482.763 440.056 481.771 439.064 481.771 437.448C481.771 435.048 483.179 433.576 484.987 433.576C486.347 433.576 487.195 434.536 487.195 436.248C487.195 438.424 486.171 440.056 484.347 440.056ZM492.922 441.144C494.794 441.144 495.978 440.136 495.978 438.6C495.978 437.064 495.05 436.536 493.386 436.12C492.074 435.8 491.69 435.48 491.69 434.84C491.69 434.056 492.282 433.592 493.322 433.592C494.362 433.592 495.018 434.104 495.066 434.904H496.314C496.218 433.208 494.986 432.488 493.354 432.488C491.85 432.488 490.442 433.32 490.442 434.92C490.442 436.184 491.114 436.84 492.986 437.304C494.25 437.624 494.682 437.944 494.682 438.664C494.682 439.528 494.138 440.04 492.97 440.04C491.482 440.04 491.018 439.32 490.954 438.424H489.658C489.69 439.864 490.698 441.144 492.922 441.144ZM500.017 430.888C500.497 430.888 500.897 430.472 500.897 429.992C500.897 429.512 500.513 429.128 500.033 429.128C499.553 429.128 499.137 429.544 499.137 430.024C499.137 430.504 499.537 430.888 500.017 430.888ZM497.649 441H498.977L500.305 432.632H498.977L497.649 441ZM504.287 441.112C504.671 441.112 505.023 441.048 505.311 440.92L505.487 439.816C505.183 439.928 504.815 439.992 504.495 439.992C503.743 439.992 503.423 439.672 503.567 438.76L504.367 433.752H506.271L506.447 432.632H504.543L504.847 430.728H503.519L503.215 432.632H502.015L501.839 433.752H503.039L502.255 438.712C502.047 440.072 502.639 441.112 504.287 441.112ZM508.398 437.624C508.398 437.432 508.398 437.256 508.414 437.08H514.606L514.654 436.776C515.102 433.912 513.678 432.504 511.406 432.504C508.942 432.504 507.038 434.6 507.038 437.56C507.038 439.656 508.382 441.144 510.654 441.144C512.35 441.144 513.822 440.312 514.334 438.584H513.006C512.686 439.544 511.87 440.04 510.702 440.04C509.102 440.04 508.398 439.144 508.398 437.624ZM511.326 433.592C512.846 433.592 513.55 434.328 513.422 436.008H508.574C508.99 434.296 510.142 433.592 511.326 433.592ZM517.08 441.08C517.64 441.08 518.104 440.632 518.104 440.056C518.104 439.48 517.624 439.032 517.064 439.032C516.504 439.032 516.056 439.48 516.056 440.056C516.056 440.632 516.52 441.08 517.08 441.08Z" fill="#D8882A"/>
<path d="M51 80C59.2843 80 66 73.2843 66 65C66 56.7157 59.2843 50 51 50C42.7157 50 36 56.7157 36 65C36 73.2843 42.7157 80 51 80Z" fill="#F3F7FA"/>
<path d="M42 38C45.3137 38 48 35.3137 48 32C48 28.6863 45.3137 26 42 26C38.6863 26 36 28.6863 36 32C36 35.3137 38.6863 38 42 38Z" fill="#F3F7FA"/>
<path d="M58 38C61.3137 38 64 35.3137 64 32C64 28.6863 61.3137 26 58 26C54.6863 26 52 28.6863 52 32C52 35.3137 54.6863 38 58 38Z" fill="#F3F7FA"/>
<path d="M74 38C77.3137 38 80 35.3137 80 32C80 28.6863 77.3137 26 74 26C70.6863 26 68 28.6863 68 32C68 35.3137 70.6863 38 74 38Z" fill="#F3F7FA"/>
<path d="M89 80C97.2843 80 104 73.2843 104 65C104 56.7157 97.2843 50 89 50C80.7157 50 74 56.7157 74 65C74 73.2843 80.7157 80 89 80Z" fill="#F3F7FA"/>
<rect x="124" y="50" width="592" height="30" rx="15" fill="#F3F7FA"/>
<rect x="144" y="122" width="464" height="256" rx="21" stroke="#FFC337" stroke-width="4"/>
<rect x="162" y="324" width="428" height="4" rx="2" fill="#FFC337"/>
<circle cx="174" cy="352" r="12" fill="#FFC337"/>
<circle cx="210" cy="352" r="12" fill="#FFC337"/>
<circle cx="238" cy="352" r="12" fill="#FFC337"/>
<circle cx="578" cy="352" r="12" fill="#FFC337"/>
<circle cx="546" cy="352" r="12" fill="#FFC337"/>
<circle cx="514" cy="352" r="12" fill="#FFC337"/>
<rect x="36" y="96" width="680" height="4" rx="2" fill="#F3F7FA"/>
<circle cx="258" cy="326" r="7" fill="#FFC337" stroke="white" stroke-width="2"/>
<defs>
<filter id="filter0_d" x="0" y="0" width="752" height="484" filterUnits="userSpaceOnUse" color-interpolation-filters="sRGB">
<feFlood flood-opacity="0" result="BackgroundImageFix"/>
<feColorMatrix in="SourceAlpha" type="matrix" values="0 0 0 0 0 0 0 0 0 0 0 0 0 0 0 0 0 0 127 0"/>
<feOffset dy="2"/>
<feGaussianBlur stdDeviation="8"/>
<feColorMatrix type="matrix" values="0 0 0 0 0 0 0 0 0 0 0 0 0 0 0 0 0 0 0.1 0"/>
<feBlend mode="normal" in2="BackgroundImageFix" result="effect1_dropShadow"/>
<feBlend mode="normal" in="SourceGraphic" in2="effect1_dropShadow" result="shape"/>
</filter>
</defs>
</svg>
