<svg width="720" height="455" viewBox="0 0 720 455" fill="none" xmlns="http://www.w3.org/2000/svg">
<path d="M35 54C43.2843 54 50 47.2843 50 39C50 30.7157 43.2843 24 35 24C26.7157 24 20 30.7157 20 39C20 47.2843 26.7157 54 35 54Z" fill="#F3F7FA"/>
<path d="M26 12C29.3137 12 32 9.31371 32 6C32 2.68629 29.3137 0 26 0C22.6863 0 20 2.68629 20 6C20 9.31371 22.6863 12 26 12Z" fill="#F3F7FA"/>
<path d="M42 12C45.3137 12 48 9.31371 48 6C48 2.68629 45.3137 0 42 0C38.6863 0 36 2.68629 36 6C36 9.31371 38.6863 12 42 12Z" fill="#F3F7FA"/>
<path d="M58 12C61.3137 12 64 9.31371 64 6C64 2.68629 61.3137 0 58 0C54.6863 0 52 2.68629 52 6C52 9.31371 54.6863 12 58 12Z" fill="#F3F7FA"/>
<path d="M73 54C81.2843 54 88 47.2843 88 39C88 30.7157 81.2843 24 73 24C64.7157 24 58 30.7157 58 39C58 47.2843 64.7157 54 73 54Z" fill="#F3F7FA"/>
<rect x="108" y="24" width="592" height="30" rx="15" fill="#F3F7FA"/>
<rect x="20" y="70" width="680" height="4" rx="2" fill="#F3F7FA"/>
<rect x="120" y="94" width="120" height="28" rx="14" fill="#F3F7FA"/>
<rect x="120" y="142" width="480" height="180" rx="16" fill="#FFC337"/>
<mask id="mask0" mask-type="alpha" maskUnits="userSpaceOnUse" x="0" y="312" width="720" height="125">
<rect y="312" width="720" height="125" rx="20" fill="white"/>
</mask>
<g mask="url(#mask0)">
<path d="M122 351C122 343.268 128.268 337 136 337H584C591.732 337 598 343.268 598 351V472H122V351Z" stroke="#FFC337" stroke-width="4"/>
<path d="M180.68 395H187.2V371.44H194.92V366.4H172.96V371.44H180.68V395ZM198.427 395H204.227V382.92C204.227 379.84 206.107 378.32 208.587 378.32C211.147 378.32 212.267 379.68 212.267 382.52V395H218.067V381.68C218.067 376.08 215.147 373.6 211.027 373.6C207.547 373.6 205.267 375.32 204.227 377.4V364.6H198.427V395ZM223.197 395H228.957V374.08H223.197V395ZM226.037 371.24C227.917 371.24 229.357 369.88 229.357 368.08C229.357 366.28 227.917 364.92 226.037 364.92C224.197 364.92 222.757 366.28 222.757 368.08C222.757 369.88 224.197 371.24 226.037 371.24ZM241.887 395.44C247.407 395.44 250.687 393.08 250.687 388.56C250.687 384.08 247.807 382.76 242.567 382C239.527 381.56 238.527 381.04 238.527 379.72C238.527 378.44 239.607 377.56 241.487 377.56C243.487 377.56 244.447 378.36 244.767 380.08H250.087C249.567 375.28 246.087 373.6 241.447 373.6C237.167 373.6 233.167 375.76 233.167 380.12C233.167 384.2 235.327 385.8 240.887 386.64C243.887 387.08 245.127 387.68 245.127 389.12C245.127 390.56 244.087 391.4 241.847 391.4C239.327 391.4 238.407 390.32 238.167 388.44H232.767C232.967 392.96 236.247 395.44 241.887 395.44ZM268.872 395.44C272.152 395.44 273.992 394.16 275.192 392.48V395H280.832V381.36C280.832 375.68 277.192 373.6 272.072 373.6C266.952 373.6 263.032 375.8 262.672 380.76H268.152C268.392 378.96 269.432 377.8 271.712 377.8C274.352 377.8 275.112 379.16 275.112 381.64V382.48H272.752C266.352 382.48 261.872 384.32 261.872 389.2C261.872 393.6 265.072 395.44 268.872 395.44ZM270.592 391.4C268.472 391.4 267.552 390.4 267.552 388.88C267.552 386.64 269.512 385.92 272.872 385.92H275.112V387.68C275.112 390 273.152 391.4 270.592 391.4ZM285.97 395H291.73V374.08H285.97V395ZM288.81 371.24C290.69 371.24 292.13 369.88 292.13 368.08C292.13 366.28 290.69 364.92 288.81 364.92C286.97 364.92 285.53 366.28 285.53 368.08C285.53 369.88 286.97 371.24 288.81 371.24ZM297.06 395H302.86V382.92C302.86 379.84 304.74 378.32 307.22 378.32C309.78 378.32 310.9 379.68 310.9 382.52V395H316.7V381.68C316.7 376.08 313.78 373.6 309.66 373.6C306.18 373.6 303.9 375.32 302.86 377.4V374.08H297.06V395ZM323.408 377L328.568 367.76L323.408 365.92L320.088 375.64L323.408 377ZM339.348 395.4C340.908 395.4 342.068 395.12 342.868 394.84V390.36C342.188 390.64 341.548 390.76 340.668 390.76C339.188 390.76 338.348 389.96 338.348 388.28V378.2H342.748V374.08H338.348V369.56H332.588V374.08H329.908V378.2H332.588V388.8C332.588 393.16 334.948 395.4 339.348 395.4ZM355.814 395H361.574V374.08H355.814V395ZM358.654 371.24C360.534 371.24 361.974 369.88 361.974 368.08C361.974 366.28 360.534 364.92 358.654 364.92C356.814 364.92 355.374 366.28 355.374 368.08C355.374 369.88 356.814 371.24 358.654 371.24ZM374.544 395.4C376.104 395.4 377.264 395.12 378.064 394.84V390.36C377.384 390.64 376.744 390.76 375.864 390.76C374.384 390.76 373.544 389.96 373.544 388.28V378.2H377.944V374.08H373.544V369.56H367.784V374.08H365.104V378.2H367.784V388.8C367.784 393.16 370.144 395.4 374.544 395.4ZM385.262 395.36C387.302 395.36 388.862 393.8 388.862 391.84C388.862 389.92 387.302 388.36 385.262 388.36C383.262 388.36 381.702 389.92 381.702 391.84C381.702 393.8 383.262 395.36 385.262 395.36Z" fill="#FFC337"/>
<path d="M177.712 425.16C180.736 425.16 182.352 423.512 182.352 420.52V413.56H180.208V420.344C180.208 422.712 179.376 423.448 177.728 423.448C176.032 423.448 175.36 422.584 175.36 420.488V413.56H173.216V420.648C173.216 423.592 174.848 425.16 177.712 425.16ZM187.5 425.16C189.644 425.16 190.844 424.184 190.844 422.488C190.844 420.712 189.676 420.232 187.708 419.928C186.38 419.704 185.98 419.464 185.98 418.856C185.98 418.264 186.476 417.864 187.308 417.864C188.204 417.864 188.636 418.216 188.796 418.984H190.588C190.38 417.096 189.02 416.456 187.308 416.456C185.74 416.456 184.172 417.288 184.172 418.968C184.172 420.536 184.988 421.16 187.196 421.512C188.428 421.72 188.988 421.976 188.988 422.664C188.988 423.368 188.524 423.736 187.484 423.736C186.348 423.736 185.916 423.24 185.82 422.392H183.996C184.076 424.168 185.34 425.16 187.5 425.16ZM196.223 425.16C198.367 425.16 199.791 424.2 200.063 422.44H198.191C198.047 423.256 197.439 423.72 196.271 423.72C194.831 423.72 194.031 422.824 193.967 421.24H200.095V420.68C200.095 417.688 198.223 416.456 196.143 416.456C193.759 416.456 191.983 418.184 191.983 420.776V420.904C191.983 423.544 193.759 425.16 196.223 425.16ZM193.999 419.944C194.191 418.648 194.975 417.864 196.143 417.864C197.343 417.864 198.079 418.504 198.175 419.944H193.999ZM209.3 425.16C211.572 425.16 213.028 423.8 213.172 421.88H211.396C211.284 423.064 210.404 423.672 209.38 423.672C207.956 423.672 207.06 422.712 207.06 420.888V420.76C207.06 419.032 208.004 418.008 209.332 418.008C210.356 418.008 211.092 418.472 211.252 419.592H213.124C212.9 417.288 211.156 416.456 209.3 416.456C206.964 416.456 205.076 418.136 205.076 420.792V420.92C205.076 423.592 206.9 425.16 209.3 425.16ZM218.584 423.656C217.112 423.656 216.264 422.584 216.264 420.872V420.744C216.264 419.016 217.144 417.976 218.584 417.976C220.024 417.976 220.888 419.032 220.888 420.76V420.872C220.888 422.584 220.024 423.656 218.584 423.656ZM218.568 425.16C221.032 425.16 222.872 423.464 222.872 420.856V420.728C222.872 418.168 221.032 416.456 218.584 416.456C216.12 416.456 214.28 418.184 214.28 420.776V420.904C214.28 423.448 216.104 425.16 218.568 425.16ZM224.621 425H226.557V420.072C226.557 418.744 227.437 418.072 228.525 418.072C229.677 418.072 230.189 418.648 230.189 419.912V425H232.125V419.736C232.125 417.432 230.941 416.456 229.261 416.456C227.885 416.456 226.957 417.144 226.557 417.96V416.632H224.621V425ZM237.203 425.144C237.795 425.144 238.211 425.048 238.515 424.936V423.4C238.243 423.512 237.955 423.56 237.571 423.56C236.963 423.56 236.611 423.224 236.611 422.488V418.088H238.451V416.632H236.611V414.792H234.675V416.632H233.555V418.088H234.675V422.664C234.675 424.248 235.539 425.144 237.203 425.144ZM240.261 425H242.197V420.648C242.197 418.872 243.221 418.328 244.917 418.312V416.504C243.509 416.52 242.725 417.144 242.197 418.2V416.632H240.261V425ZM248.657 425.16C249.937 425.16 250.673 424.696 251.217 423.976V425H253.121V419.512C253.121 417.224 251.649 416.456 249.777 416.456C247.905 416.456 246.353 417.272 246.193 419.224H248.065C248.161 418.392 248.657 417.912 249.665 417.912C250.801 417.912 251.185 418.472 251.185 419.592V420.024H250.145C247.745 420.024 245.857 420.728 245.857 422.68C245.857 424.424 247.121 425.16 248.657 425.16ZM249.121 423.768C248.161 423.768 247.777 423.304 247.777 422.6C247.777 421.576 248.721 421.24 250.193 421.24H251.185V422.072C251.185 423.144 250.305 423.768 249.121 423.768ZM258.204 425.16C260.348 425.16 261.548 424.184 261.548 422.488C261.548 420.712 260.38 420.232 258.411 419.928C257.084 419.704 256.684 419.464 256.684 418.856C256.684 418.264 257.18 417.864 258.012 417.864C258.908 417.864 259.34 418.216 259.5 418.984H261.292C261.084 417.096 259.724 416.456 258.012 416.456C256.444 416.456 254.876 417.288 254.876 418.968C254.876 420.536 255.692 421.16 257.9 421.512C259.132 421.72 259.692 421.976 259.692 422.664C259.692 423.368 259.228 423.736 258.188 423.736C257.052 423.736 256.62 423.24 256.524 422.392H254.7C254.78 424.168 256.044 425.16 258.204 425.16ZM266.094 425.144C266.686 425.144 267.102 425.048 267.406 424.936V423.4C267.134 423.512 266.846 423.56 266.462 423.56C265.854 423.56 265.502 423.224 265.502 422.488V418.088H267.342V416.632H265.502V414.792H263.566V416.632H262.446V418.088H263.566V422.664C263.566 424.248 264.43 425.144 266.094 425.144ZM276.629 425.16C278.901 425.16 280.357 423.8 280.501 421.88H278.725C278.613 423.064 277.733 423.672 276.709 423.672C275.285 423.672 274.389 422.712 274.389 420.888V420.76C274.389 419.032 275.333 418.008 276.661 418.008C277.685 418.008 278.421 418.472 278.581 419.592H280.453C280.229 417.288 278.485 416.456 276.629 416.456C274.293 416.456 272.405 418.136 272.405 420.792V420.92C272.405 423.592 274.229 425.16 276.629 425.16ZM282.168 425H284.104V420.072C284.104 418.744 284.984 418.072 286.072 418.072C287.224 418.072 287.736 418.648 287.736 419.912V425H289.672V419.736C289.672 417.432 288.488 416.456 286.808 416.456C285.432 416.456 284.504 417.144 284.104 417.96V412.76H282.168V425ZM295.582 425.16C297.726 425.16 299.15 424.2 299.422 422.44H297.55C297.406 423.256 296.798 423.72 295.63 423.72C294.19 423.72 293.39 422.824 293.326 421.24H299.454V420.68C299.454 417.688 297.582 416.456 295.502 416.456C293.118 416.456 291.342 418.184 291.342 420.776V420.904C291.342 423.544 293.118 425.16 295.582 425.16ZM293.358 419.944C293.55 418.648 294.334 417.864 295.502 417.864C296.702 417.864 297.438 418.504 297.534 419.944H293.358ZM304.847 425.16C307.119 425.16 308.575 423.8 308.719 421.88H306.943C306.831 423.064 305.951 423.672 304.927 423.672C303.503 423.672 302.607 422.712 302.607 420.888V420.76C302.607 419.032 303.551 418.008 304.879 418.008C305.903 418.008 306.639 418.472 306.799 419.592H308.671C308.447 417.288 306.703 416.456 304.847 416.456C302.511 416.456 300.623 418.136 300.623 420.792V420.92C300.623 423.592 302.447 425.16 304.847 425.16ZM310.386 425H312.322V420.888L315.458 425H317.698L314.178 420.472L317.426 416.632H315.314L312.322 420.312V412.76H310.386V425ZM322.301 425.16C324.445 425.16 325.869 424.2 326.141 422.44H324.269C324.125 423.256 323.517 423.72 322.349 423.72C320.909 423.72 320.109 422.824 320.045 421.24H326.173V420.68C326.173 417.688 324.301 416.456 322.221 416.456C319.837 416.456 318.061 418.184 318.061 420.776V420.904C318.061 423.544 319.837 425.16 322.301 425.16ZM320.077 419.944C320.269 418.648 321.053 417.864 322.221 417.864C323.421 417.864 324.157 418.504 324.253 419.944H320.077ZM327.902 425H329.838V420.648C329.838 418.872 330.862 418.328 332.558 418.312V416.504C331.15 416.52 330.366 417.144 329.838 418.2V416.632H327.902V425ZM337.125 425.16C339.269 425.16 340.469 424.184 340.469 422.488C340.469 420.712 339.301 420.232 337.333 419.928C336.005 419.704 335.605 419.464 335.605 418.856C335.605 418.264 336.101 417.864 336.933 417.864C337.829 417.864 338.261 418.216 338.421 418.984H340.213C340.005 417.096 338.645 416.456 336.933 416.456C335.365 416.456 333.797 417.288 333.797 418.968C333.797 420.536 334.613 421.16 336.821 421.512C338.053 421.72 338.613 421.976 338.613 422.664C338.613 423.368 338.149 423.736 337.109 423.736C335.973 423.736 335.541 423.24 335.445 422.392H333.621C333.701 424.168 334.965 425.16 337.125 425.16ZM348.828 425.144C349.42 425.144 349.836 425.048 350.14 424.936V423.4C349.868 423.512 349.58 423.56 349.196 423.56C348.588 423.56 348.236 423.224 348.236 422.488V418.088H350.076V416.632H348.236V414.792H346.3V416.632H345.18V418.088H346.3V422.664C346.3 424.248 347.164 425.144 348.828 425.144ZM355.63 423.656C354.158 423.656 353.31 422.584 353.31 420.872V420.744C353.31 419.016 354.19 417.976 355.63 417.976C357.07 417.976 357.934 419.032 357.934 420.76V420.872C357.934 422.584 357.07 423.656 355.63 423.656ZM355.614 425.16C358.078 425.16 359.918 423.464 359.918 420.856V420.728C359.918 418.168 358.078 416.456 355.63 416.456C353.166 416.456 351.326 418.184 351.326 420.776V420.904C351.326 423.448 353.15 425.16 355.614 425.16ZM367.672 425.16C368.952 425.16 369.688 424.696 370.232 423.976V425H372.136V419.512C372.136 417.224 370.664 416.456 368.792 416.456C366.92 416.456 365.368 417.272 365.208 419.224H367.08C367.176 418.392 367.672 417.912 368.68 417.912C369.816 417.912 370.2 418.472 370.2 419.592V420.024H369.16C366.76 420.024 364.872 420.728 364.872 422.68C364.872 424.424 366.136 425.16 367.672 425.16ZM368.136 423.768C367.176 423.768 366.792 423.304 366.792 422.6C366.792 421.576 367.736 421.24 369.208 421.24H370.2V422.072C370.2 423.144 369.32 423.768 368.136 423.768ZM376.313 425H378.569L381.593 416.632H379.689L377.529 423.016L375.337 416.632H373.257L376.313 425ZM386.459 423.656C384.987 423.656 384.139 422.584 384.139 420.872V420.744C384.139 419.016 385.019 417.976 386.459 417.976C387.899 417.976 388.763 419.032 388.763 420.76V420.872C388.763 422.584 387.899 423.656 386.459 423.656ZM386.443 425.16C388.907 425.16 390.747 423.464 390.747 420.856V420.728C390.747 418.168 388.907 416.456 386.459 416.456C383.995 416.456 382.155 418.184 382.155 420.776V420.904C382.155 423.448 383.979 425.16 386.443 425.16ZM392.544 425H394.48V416.632H392.544V425ZM393.488 415.256C394.128 415.256 394.64 414.776 394.64 414.152C394.64 413.512 394.128 413.032 393.488 413.032C392.848 413.032 392.336 413.512 392.336 414.152C392.336 414.776 392.848 415.256 393.488 415.256ZM399.976 425.16C401.208 425.16 402.28 424.424 402.728 423.592V425H404.664V412.76H402.728V417.912C402.264 417.08 401.416 416.456 400.056 416.456C397.88 416.456 396.296 418.152 396.296 420.824V420.952C396.296 423.672 397.88 425.16 399.976 425.16ZM400.456 423.624C399.208 423.624 398.28 422.744 398.28 420.904V420.776C398.28 418.968 399.112 417.976 400.536 417.976C401.944 417.976 402.792 418.888 402.792 420.728V420.856C402.792 422.728 401.8 423.624 400.456 423.624ZM413.625 425.144C414.217 425.144 414.633 425.048 414.937 424.936V423.4C414.665 423.512 414.377 423.56 413.993 423.56C413.385 423.56 413.033 423.224 413.033 422.488V418.088H414.873V416.632H413.033V414.792H411.097V416.632H409.977V418.088H411.097V422.664C411.097 424.248 411.961 425.144 413.625 425.144ZM416.683 425H418.619V420.072C418.619 418.744 419.499 418.072 420.587 418.072C421.739 418.072 422.251 418.648 422.251 419.912V425H424.187V419.736C424.187 417.432 423.003 416.456 421.323 416.456C419.947 416.456 419.019 417.144 418.619 417.96V412.76H416.683V425ZM426.466 425H428.402V416.632H426.466V425ZM427.41 415.256C428.05 415.256 428.562 414.776 428.562 414.152C428.562 413.512 428.05 413.032 427.41 413.032C426.77 413.032 426.258 413.512 426.258 414.152C426.258 414.776 426.77 415.256 427.41 415.256ZM433.625 425.16C435.769 425.16 436.969 424.184 436.969 422.488C436.969 420.712 435.801 420.232 433.833 419.928C432.505 419.704 432.105 419.464 432.105 418.856C432.105 418.264 432.601 417.864 433.433 417.864C434.329 417.864 434.761 418.216 434.921 418.984H436.713C436.505 417.096 435.145 416.456 433.433 416.456C431.865 416.456 430.297 417.288 430.297 418.968C430.297 420.536 431.113 421.16 433.321 421.512C434.553 421.72 435.113 421.976 435.113 422.664C435.113 423.368 434.649 423.736 433.609 423.736C432.473 423.736 432.041 423.24 431.945 422.392H430.121C430.201 424.168 431.465 425.16 433.625 425.16ZM439.82 425.112C440.54 425.112 441.1 424.568 441.1 423.864C441.1 423.16 440.54 422.6 439.82 422.6C439.116 422.6 438.556 423.16 438.556 423.864C438.556 424.568 439.116 425.112 439.82 425.112Z" fill="#FFC337"/>
</g>
<path d="M180.68 202H187.2V178.44H194.92V173.4H172.96V178.44H180.68V202ZM198.427 202H204.227V189.92C204.227 186.84 206.107 185.32 208.587 185.32C211.147 185.32 212.267 186.68 212.267 189.52V202H218.067V188.68C218.067 183.08 215.147 180.6 211.027 180.6C207.547 180.6 205.267 182.32 204.227 184.4V171.6H198.427V202ZM223.197 202H228.957V181.08H223.197V202ZM226.037 178.24C227.917 178.24 229.357 176.88 229.357 175.08C229.357 173.28 227.917 171.92 226.037 171.92C224.197 171.92 222.757 173.28 222.757 175.08C222.757 176.88 224.197 178.24 226.037 178.24ZM241.887 202.44C247.407 202.44 250.687 200.08 250.687 195.56C250.687 191.08 247.807 189.76 242.567 189C239.527 188.56 238.527 188.04 238.527 186.72C238.527 185.44 239.607 184.56 241.487 184.56C243.487 184.56 244.447 185.36 244.767 187.08H250.087C249.567 182.28 246.087 180.6 241.447 180.6C237.167 180.6 233.167 182.76 233.167 187.12C233.167 191.2 235.327 192.8 240.887 193.64C243.887 194.08 245.127 194.68 245.127 196.12C245.127 197.56 244.087 198.4 241.847 198.4C239.327 198.4 238.407 197.32 238.167 195.44H232.767C232.967 199.96 236.247 202.44 241.887 202.44ZM263.392 202H269.152V181.08H263.392V202ZM266.232 178.24C268.112 178.24 269.552 176.88 269.552 175.08C269.552 173.28 268.112 171.92 266.232 171.92C264.392 171.92 262.952 173.28 262.952 175.08C262.952 176.88 264.392 178.24 266.232 178.24ZM282.082 202.44C287.602 202.44 290.882 200.08 290.882 195.56C290.882 191.08 288.002 189.76 282.762 189C279.722 188.56 278.722 188.04 278.722 186.72C278.722 185.44 279.802 184.56 281.682 184.56C283.682 184.56 284.642 185.36 284.962 187.08H290.282C289.762 182.28 286.282 180.6 281.642 180.6C277.362 180.6 273.362 182.76 273.362 187.12C273.362 191.2 275.522 192.8 281.082 193.64C284.082 194.08 285.322 194.68 285.322 196.12C285.322 197.56 284.282 198.4 282.042 198.4C279.522 198.4 278.602 197.32 278.362 195.44H272.962C273.162 199.96 276.442 202.44 282.082 202.44ZM303.587 202H309.347V181.08H303.587V202ZM306.427 178.24C308.307 178.24 309.747 176.88 309.747 175.08C309.747 173.28 308.307 171.92 306.427 171.92C304.587 171.92 303.147 173.28 303.147 175.08C303.147 176.88 304.587 178.24 306.427 178.24ZM322.317 202.4C323.877 202.4 325.037 202.12 325.837 201.84V197.36C325.157 197.64 324.517 197.76 323.637 197.76C322.157 197.76 321.317 196.96 321.317 195.28V185.2H325.717V181.08H321.317V176.56H315.557V181.08H312.877V185.2H315.557V195.8C315.557 200.16 317.917 202.4 322.317 202.4ZM333.035 202.36C335.075 202.36 336.635 200.8 336.635 198.84C336.635 196.92 335.075 195.36 333.035 195.36C331.035 195.36 329.475 196.92 329.475 198.84C329.475 200.8 331.035 202.36 333.035 202.36Z" fill="#1E262D"/>
<path d="M175.6 232H177.744V222.24H180.928V220.56H172.416V222.24H175.6V232ZM182.48 232H184.416V227.072C184.416 225.744 185.296 225.072 186.384 225.072C187.536 225.072 188.048 225.648 188.048 226.912V232H189.984V226.736C189.984 224.432 188.8 223.456 187.12 223.456C185.744 223.456 184.816 224.144 184.416 224.96V219.76H182.48V232ZM195.895 232.16C198.039 232.16 199.463 231.2 199.735 229.44H197.863C197.719 230.256 197.111 230.72 195.943 230.72C194.503 230.72 193.703 229.824 193.639 228.24H199.767V227.68C199.767 224.688 197.895 223.456 195.815 223.456C193.431 223.456 191.655 225.184 191.655 227.776V227.904C191.655 230.544 193.431 232.16 195.895 232.16ZM193.671 226.944C193.863 225.648 194.647 224.864 195.815 224.864C197.015 224.864 197.751 225.504 197.847 226.944H193.671ZM208.972 232.16C211.244 232.16 212.7 230.8 212.844 228.88H211.068C210.956 230.064 210.076 230.672 209.052 230.672C207.628 230.672 206.732 229.712 206.732 227.888V227.76C206.732 226.032 207.676 225.008 209.004 225.008C210.028 225.008 210.764 225.472 210.924 226.592H212.796C212.572 224.288 210.828 223.456 208.972 223.456C206.636 223.456 204.748 225.136 204.748 227.792V227.92C204.748 230.592 206.572 232.16 208.972 232.16ZM218.255 230.656C216.783 230.656 215.935 229.584 215.935 227.872V227.744C215.935 226.016 216.815 224.976 218.255 224.976C219.695 224.976 220.559 226.032 220.559 227.76V227.872C220.559 229.584 219.695 230.656 218.255 230.656ZM218.239 232.16C220.703 232.16 222.543 230.464 222.543 227.856V227.728C222.543 225.168 220.703 223.456 218.255 223.456C215.791 223.456 213.951 225.184 213.951 227.776V227.904C213.951 230.448 215.775 232.16 218.239 232.16ZM224.293 232H226.229V227.072C226.229 225.744 227.109 225.072 228.197 225.072C229.349 225.072 229.861 225.648 229.861 226.912V232H231.797V226.736C231.797 224.432 230.613 223.456 228.933 223.456C227.557 223.456 226.629 224.144 226.229 224.96V223.632H224.293V232ZM236.875 232.144C237.467 232.144 237.883 232.048 238.187 231.936V230.4C237.915 230.512 237.627 230.56 237.243 230.56C236.635 230.56 236.283 230.224 236.283 229.488V225.088H238.123V223.632H236.283V221.792H234.347V223.632H233.227V225.088H234.347V229.664C234.347 231.248 235.211 232.144 236.875 232.144ZM239.933 232H241.869V227.648C241.869 225.872 242.893 225.328 244.589 225.312V223.504C243.181 223.52 242.397 224.144 241.869 225.2V223.632H239.933V232ZM248.328 232.16C249.608 232.16 250.344 231.696 250.888 230.976V232H252.792V226.512C252.792 224.224 251.32 223.456 249.448 223.456C247.576 223.456 246.024 224.272 245.864 226.224H247.736C247.832 225.392 248.328 224.912 249.336 224.912C250.472 224.912 250.856 225.472 250.856 226.592V227.024H249.816C247.416 227.024 245.528 227.728 245.528 229.68C245.528 231.424 246.792 232.16 248.328 232.16ZM248.792 230.768C247.832 230.768 247.448 230.304 247.448 229.6C247.448 228.576 248.392 228.24 249.864 228.24H250.856V229.072C250.856 230.144 249.976 230.768 248.792 230.768ZM257.875 232.16C260.019 232.16 261.219 231.184 261.219 229.488C261.219 227.712 260.051 227.232 258.083 226.928C256.755 226.704 256.355 226.464 256.355 225.856C256.355 225.264 256.851 224.864 257.683 224.864C258.579 224.864 259.011 225.216 259.171 225.984H260.963C260.755 224.096 259.395 223.456 257.683 223.456C256.115 223.456 254.547 224.288 254.547 225.968C254.547 227.536 255.363 228.16 257.571 228.512C258.803 228.72 259.363 228.976 259.363 229.664C259.363 230.368 258.899 230.736 257.859 230.736C256.723 230.736 256.291 230.24 256.195 229.392H254.371C254.451 231.168 255.715 232.16 257.875 232.16ZM265.766 232.144C266.358 232.144 266.774 232.048 267.078 231.936V230.4C266.806 230.512 266.518 230.56 266.134 230.56C265.526 230.56 265.174 230.224 265.174 229.488V225.088H267.014V223.632H265.174V221.792H263.238V223.632H262.118V225.088H263.238V229.664C263.238 231.248 264.102 232.144 265.766 232.144ZM277.308 232.16C279.468 232.16 281.02 230.528 281.02 227.84V227.712C281.02 225.008 279.404 223.456 277.308 223.456C276.076 223.456 275.036 224.176 274.572 224.976V219.76H272.636V232H274.572V230.656C275.02 231.504 275.98 232.16 277.308 232.16ZM276.828 230.624C275.42 230.624 274.508 229.744 274.508 227.872V227.744C274.508 225.888 275.468 224.976 276.812 224.976C278.076 224.976 279.036 225.888 279.036 227.744V227.872C279.036 229.664 278.252 230.624 276.828 230.624ZM286.441 232.16C288.585 232.16 290.009 231.2 290.281 229.44H288.409C288.265 230.256 287.657 230.72 286.489 230.72C285.049 230.72 284.249 229.824 284.185 228.24H290.313V227.68C290.313 224.688 288.441 223.456 286.361 223.456C283.977 223.456 282.201 225.184 282.201 227.776V227.904C282.201 230.544 283.977 232.16 286.441 232.16ZM284.217 226.944C284.409 225.648 285.193 224.864 286.361 224.864C287.561 224.864 288.297 225.504 288.393 226.944H284.217ZM294.891 232.144C295.483 232.144 295.899 232.048 296.203 231.936V230.4C295.931 230.512 295.643 230.56 295.259 230.56C294.651 230.56 294.299 230.224 294.299 229.488V225.088H296.139V223.632H294.299V221.792H292.363V223.632H291.243V225.088H292.363V229.664C292.363 231.248 293.227 232.144 294.891 232.144ZM299.677 232H301.661L303.357 226.368L304.909 232H306.877L309.501 223.632H307.613L305.869 229.68L304.237 223.632H302.621L300.845 229.68L299.181 223.632H297.117L299.677 232ZM314.426 232.16C316.57 232.16 317.994 231.2 318.266 229.44H316.394C316.25 230.256 315.642 230.72 314.474 230.72C313.034 230.72 312.234 229.824 312.17 228.24H318.298V227.68C318.298 224.688 316.426 223.456 314.346 223.456C311.962 223.456 310.186 225.184 310.186 227.776V227.904C310.186 230.544 311.962 232.16 314.426 232.16ZM312.202 226.944C312.394 225.648 313.178 224.864 314.346 224.864C315.546 224.864 316.282 225.504 316.378 226.944H312.202ZM323.707 232.16C325.851 232.16 327.275 231.2 327.547 229.44H325.675C325.531 230.256 324.923 230.72 323.755 230.72C322.315 230.72 321.515 229.824 321.451 228.24H327.579V227.68C327.579 224.688 325.707 223.456 323.627 223.456C321.243 223.456 319.467 225.184 319.467 227.776V227.904C319.467 230.544 321.243 232.16 323.707 232.16ZM321.483 226.944C321.675 225.648 322.459 224.864 323.627 224.864C324.827 224.864 325.563 225.504 325.659 226.944H321.483ZM329.308 232H331.244V227.072C331.244 225.744 332.124 225.072 333.212 225.072C334.364 225.072 334.876 225.648 334.876 226.912V232H336.812V226.736C336.812 224.432 335.628 223.456 333.948 223.456C332.572 223.456 331.644 224.144 331.244 224.96V223.632H329.308V232ZM345.703 232.144C346.295 232.144 346.711 232.048 347.015 231.936V230.4C346.743 230.512 346.455 230.56 346.071 230.56C345.463 230.56 345.111 230.224 345.111 229.488V225.088H346.951V223.632H345.111V221.792H343.175V223.632H342.055V225.088H343.175V229.664C343.175 231.248 344.039 232.144 345.703 232.144ZM348.761 232H350.697V227.072C350.697 225.744 351.577 225.072 352.665 225.072C353.817 225.072 354.329 225.648 354.329 226.912V232H356.265V226.736C356.265 224.432 355.081 223.456 353.401 223.456C352.025 223.456 351.097 224.144 350.697 224.96V219.76H348.761V232ZM362.176 232.16C364.32 232.16 365.744 231.2 366.016 229.44H364.144C364 230.256 363.392 230.72 362.224 230.72C360.784 230.72 359.984 229.824 359.92 228.24H366.048V227.68C366.048 224.688 364.176 223.456 362.096 223.456C359.712 223.456 357.936 225.184 357.936 227.776V227.904C357.936 230.544 359.712 232.16 362.176 232.16ZM359.952 226.944C360.144 225.648 360.928 224.864 362.096 224.864C363.296 224.864 364.032 225.504 364.128 226.944H359.952ZM371.926 232H373.862V225.088H375.766V223.632H373.862V222.432C373.862 221.712 374.182 221.2 374.966 221.2C375.318 221.2 375.622 221.264 375.846 221.344V219.84C375.494 219.728 375.206 219.68 374.742 219.68C372.95 219.68 371.926 220.672 371.926 222.512V223.632H370.79V225.088H371.926V232ZM380.818 230.656C379.346 230.656 378.498 229.584 378.498 227.872V227.744C378.498 226.016 379.378 224.976 380.818 224.976C382.258 224.976 383.122 226.032 383.122 227.76V227.872C383.122 229.584 382.258 230.656 380.818 230.656ZM380.802 232.16C383.266 232.16 385.106 230.464 385.106 227.856V227.728C385.106 225.168 383.266 223.456 380.818 223.456C378.354 223.456 376.514 225.184 376.514 227.776V227.904C376.514 230.448 378.338 232.16 380.802 232.16ZM386.855 232H388.791V227.648C388.791 225.872 389.815 225.328 391.511 225.312V223.504C390.103 223.52 389.319 224.144 388.791 225.2V223.632H386.855V232ZM396.738 232.16C398.882 232.16 400.306 231.2 400.578 229.44H398.706C398.562 230.256 397.954 230.72 396.786 230.72C395.346 230.72 394.546 229.824 394.482 228.24H400.61V227.68C400.61 224.688 398.738 223.456 396.658 223.456C394.274 223.456 392.498 225.184 392.498 227.776V227.904C392.498 230.544 394.274 232.16 396.738 232.16ZM394.514 226.944C394.706 225.648 395.49 224.864 396.658 224.864C397.858 224.864 398.594 225.504 398.69 226.944H394.514ZM405.908 235.072C408.5 235.072 410.148 233.84 410.164 231.376V223.632H408.228V224.912C407.748 224.08 406.916 223.456 405.54 223.456C403.38 223.456 401.78 225.216 401.78 227.568V227.68C401.78 230.096 403.396 231.664 405.492 231.664C406.724 231.664 407.764 230.912 408.228 230.112V231.344C408.228 232.848 407.396 233.6 405.891 233.6C404.628 233.6 403.988 233.12 403.828 232.288H401.876C402.1 233.888 403.284 235.072 405.908 235.072ZM405.972 230.176C404.724 230.176 403.764 229.216 403.764 227.664V227.536C403.764 226.016 404.596 224.976 406.036 224.976C407.428 224.976 408.292 225.92 408.292 227.504V227.616C408.292 229.216 407.316 230.176 405.972 230.176ZM412.465 232H414.401V227.648C414.401 225.872 415.424 225.328 417.121 225.312V223.504C415.713 223.52 414.929 224.144 414.401 225.2V223.632H412.465V232ZM422.412 230.656C420.94 230.656 420.092 229.584 420.092 227.872V227.744C420.092 226.016 420.972 224.976 422.412 224.976C423.852 224.976 424.716 226.032 424.716 227.76V227.872C424.716 229.584 423.852 230.656 422.412 230.656ZM422.396 232.16C424.86 232.16 426.7 230.464 426.7 227.856V227.728C426.7 225.168 424.86 223.456 422.412 223.456C419.948 223.456 418.108 225.184 418.108 227.776V227.904C418.108 230.448 419.932 232.16 422.396 232.16ZM431.249 232.16C432.609 232.16 433.489 231.504 433.905 230.688V232H435.841V223.632H433.905V228.608C433.905 229.936 432.993 230.608 431.953 230.608C430.833 230.608 430.305 230.032 430.305 228.768V223.632H428.369V228.992C428.369 231.216 429.601 232.16 431.249 232.16ZM438.136 232H440.072V227.072C440.072 225.744 440.952 225.072 442.04 225.072C443.192 225.072 443.704 225.648 443.704 226.912V232H445.64V226.736C445.64 224.432 444.456 223.456 442.776 223.456C441.4 223.456 440.472 224.144 440.072 224.96V223.632H438.136V232ZM451.007 232.16C452.239 232.16 453.311 231.424 453.759 230.592V232H455.695V219.76H453.759V224.912C453.295 224.08 452.447 223.456 451.087 223.456C448.911 223.456 447.327 225.152 447.327 227.824V227.952C447.327 230.672 448.911 232.16 451.007 232.16ZM451.487 230.624C450.239 230.624 449.311 229.744 449.311 227.904V227.776C449.311 225.968 450.143 224.976 451.567 224.976C452.975 224.976 453.823 225.888 453.823 227.728V227.856C453.823 229.728 452.831 230.624 451.487 230.624ZM175.344 260.16C176.624 260.16 177.36 259.696 177.904 258.976V260H179.808V254.512C179.808 252.224 178.336 251.456 176.464 251.456C174.592 251.456 173.04 252.272 172.88 254.224H174.752C174.848 253.392 175.344 252.912 176.352 252.912C177.488 252.912 177.872 253.472 177.872 254.592V255.024H176.832C174.432 255.024 172.544 255.728 172.544 257.68C172.544 259.424 173.808 260.16 175.344 260.16ZM175.808 258.768C174.848 258.768 174.464 258.304 174.464 257.6C174.464 256.576 175.408 256.24 176.88 256.24H177.872V257.072C177.872 258.144 176.992 258.768 175.808 258.768ZM182.027 260H183.963V255.072C183.963 253.744 184.843 253.072 185.931 253.072C187.083 253.072 187.595 253.648 187.595 254.912V260H189.531V254.736C189.531 252.432 188.347 251.456 186.667 251.456C185.291 251.456 184.363 252.144 183.963 252.96V251.632H182.027V260ZM194.897 260.16C196.129 260.16 197.201 259.424 197.649 258.592V260H199.585V247.76H197.649V252.912C197.185 252.08 196.337 251.456 194.977 251.456C192.801 251.456 191.217 253.152 191.217 255.824V255.952C191.217 258.672 192.801 260.16 194.897 260.16ZM195.377 258.624C194.129 258.624 193.201 257.744 193.201 255.904V255.776C193.201 253.968 194.033 252.976 195.457 252.976C196.865 252.976 197.713 253.888 197.713 255.728V255.856C197.713 257.728 196.721 258.624 195.377 258.624ZM210.371 260.16C212.531 260.16 214.083 258.528 214.083 255.84V255.712C214.083 253.008 212.467 251.456 210.371 251.456C209.139 251.456 208.099 252.176 207.635 252.976V247.76H205.699V260H207.635V258.656C208.083 259.504 209.043 260.16 210.371 260.16ZM209.891 258.624C208.483 258.624 207.571 257.744 207.571 255.872V255.744C207.571 253.888 208.531 252.976 209.875 252.976C211.139 252.976 212.099 253.888 212.099 255.744V255.872C212.099 257.664 211.315 258.624 209.891 258.624ZM218.016 260.16C219.296 260.16 220.032 259.696 220.576 258.976V260H222.48V254.512C222.48 252.224 221.008 251.456 219.136 251.456C217.264 251.456 215.712 252.272 215.552 254.224H217.424C217.52 253.392 218.016 252.912 219.024 252.912C220.16 252.912 220.544 253.472 220.544 254.592V255.024H219.504C217.104 255.024 215.216 255.728 215.216 257.68C215.216 259.424 216.48 260.16 218.016 260.16ZM218.48 258.768C217.52 258.768 217.136 258.304 217.136 257.6C217.136 256.576 218.08 256.24 219.552 256.24H220.544V257.072C220.544 258.144 219.664 258.768 218.48 258.768ZM228.363 260.16C230.635 260.16 232.091 258.8 232.235 256.88H230.459C230.347 258.064 229.467 258.672 228.443 258.672C227.019 258.672 226.123 257.712 226.123 255.888V255.76C226.123 254.032 227.067 253.008 228.395 253.008C229.419 253.008 230.155 253.472 230.315 254.592H232.187C231.963 252.288 230.219 251.456 228.363 251.456C226.027 251.456 224.139 253.136 224.139 255.792V255.92C224.139 258.592 225.963 260.16 228.363 260.16ZM233.902 260H235.838V255.888L238.974 260H241.214L237.694 255.472L240.942 251.632H238.83L235.838 255.312V247.76H233.902V260ZM246.033 263.072C248.625 263.072 250.273 261.84 250.289 259.376V251.632H248.353V252.912C247.873 252.08 247.041 251.456 245.665 251.456C243.505 251.456 241.905 253.216 241.905 255.568V255.68C241.905 258.096 243.521 259.664 245.617 259.664C246.849 259.664 247.889 258.912 248.353 258.112V259.344C248.353 260.848 247.521 261.6 246.016 261.6C244.753 261.6 244.113 261.12 243.953 260.288H242.001C242.225 261.888 243.409 263.072 246.033 263.072ZM246.097 258.176C244.849 258.176 243.889 257.216 243.889 255.664V255.536C243.889 254.016 244.721 252.976 246.161 252.976C247.553 252.976 248.417 253.92 248.417 255.504V255.616C248.417 257.216 247.441 258.176 246.097 258.176ZM252.59 260H254.526V255.648C254.526 253.872 255.549 253.328 257.246 253.312V251.504C255.838 251.52 255.054 252.144 254.526 253.2V251.632H252.59V260ZM262.537 258.656C261.065 258.656 260.217 257.584 260.217 255.872V255.744C260.217 254.016 261.097 252.976 262.537 252.976C263.977 252.976 264.841 254.032 264.841 255.76V255.872C264.841 257.584 263.977 258.656 262.537 258.656ZM262.521 260.16C264.985 260.16 266.825 258.464 266.825 255.856V255.728C266.825 253.168 264.985 251.456 262.537 251.456C260.073 251.456 258.233 253.184 258.233 255.776V255.904C258.233 258.448 260.057 260.16 262.521 260.16ZM271.374 260.16C272.734 260.16 273.614 259.504 274.03 258.688V260H275.966V251.632H274.03V256.608C274.03 257.936 273.118 258.608 272.078 258.608C270.958 258.608 270.43 258.032 270.43 256.768V251.632H268.494V256.992C268.494 259.216 269.726 260.16 271.374 260.16ZM278.261 260H280.197V255.072C280.197 253.744 281.077 253.072 282.165 253.072C283.317 253.072 283.829 253.648 283.829 254.912V260H285.765V254.736C285.765 252.432 284.581 251.456 282.901 251.456C281.525 251.456 280.597 252.144 280.197 252.96V251.632H278.261V260ZM291.132 260.16C292.364 260.16 293.436 259.424 293.884 258.592V260H295.82V247.76H293.884V252.912C293.42 252.08 292.572 251.456 291.212 251.456C289.036 251.456 287.452 253.152 287.452 255.824V255.952C287.452 258.672 289.036 260.16 291.132 260.16ZM291.612 258.624C290.364 258.624 289.436 257.744 289.436 255.904V255.776C289.436 253.968 290.268 252.976 291.692 252.976C293.1 252.976 293.948 253.888 293.948 255.728V255.856C293.948 257.728 292.956 258.624 291.612 258.624ZM301.981 260H303.917V251.632H301.981V260ZM302.925 250.256C303.565 250.256 304.077 249.776 304.077 249.152C304.077 248.512 303.565 248.032 302.925 248.032C302.285 248.032 301.773 248.512 301.773 249.152C301.773 249.776 302.285 250.256 302.925 250.256ZM309.141 260.16C311.285 260.16 312.485 259.184 312.485 257.488C312.485 255.712 311.317 255.232 309.349 254.928C308.021 254.704 307.621 254.464 307.621 253.856C307.621 253.264 308.117 252.864 308.949 252.864C309.845 252.864 310.277 253.216 310.437 253.984H312.229C312.021 252.096 310.661 251.456 308.949 251.456C307.381 251.456 305.813 252.288 305.813 253.968C305.813 255.536 306.629 256.16 308.837 256.512C310.069 256.72 310.629 256.976 310.629 257.664C310.629 258.368 310.165 258.736 309.125 258.736C307.989 258.736 307.557 258.24 307.461 257.392H305.637C305.717 259.168 306.981 260.16 309.141 260.16ZM321.564 263.072C324.156 263.072 325.804 261.84 325.82 259.376V251.632H323.884V252.912C323.404 252.08 322.572 251.456 321.196 251.456C319.036 251.456 317.436 253.216 317.436 255.568V255.68C317.436 258.096 319.052 259.664 321.148 259.664C322.38 259.664 323.42 258.912 323.884 258.112V259.344C323.884 260.848 323.052 261.6 321.548 261.6C320.284 261.6 319.644 261.12 319.484 260.288H317.532C317.756 261.888 318.94 263.072 321.564 263.072ZM321.628 258.176C320.38 258.176 319.42 257.216 319.42 255.664V255.536C319.42 254.016 320.252 252.976 321.692 252.976C323.084 252.976 323.948 253.92 323.948 255.504V255.616C323.948 257.216 322.972 258.176 321.628 258.176ZM328.121 260H330.057V255.648C330.057 253.872 331.081 253.328 332.777 253.312V251.504C331.369 251.52 330.585 252.144 330.057 253.2V251.632H328.121V260ZM338.004 260.16C340.148 260.16 341.572 259.2 341.844 257.44H339.972C339.828 258.256 339.22 258.72 338.052 258.72C336.612 258.72 335.812 257.824 335.748 256.24H341.876V255.68C341.876 252.688 340.004 251.456 337.924 251.456C335.54 251.456 333.764 253.184 333.764 255.776V255.904C333.764 258.544 335.54 260.16 338.004 260.16ZM335.78 254.944C335.972 253.648 336.756 252.864 337.924 252.864C339.124 252.864 339.86 253.504 339.956 254.944H335.78ZM345.875 260.16C347.155 260.16 347.891 259.696 348.435 258.976V260H350.339V254.512C350.339 252.224 348.867 251.456 346.995 251.456C345.123 251.456 343.571 252.272 343.411 254.224H345.283C345.379 253.392 345.875 252.912 346.883 252.912C348.019 252.912 348.403 253.472 348.403 254.592V255.024H347.363C344.963 255.024 343.075 255.728 343.075 257.68C343.075 259.424 344.339 260.16 345.875 260.16ZM346.339 258.768C345.379 258.768 344.995 258.304 344.995 257.6C344.995 256.576 345.939 256.24 347.411 256.24H348.403V257.072C348.403 258.144 347.523 258.768 346.339 258.768ZM355.406 260.144C355.998 260.144 356.414 260.048 356.718 259.936V258.4C356.446 258.512 356.158 258.56 355.774 258.56C355.166 258.56 354.814 258.224 354.814 257.488V253.088H356.654V251.632H354.814V249.792H352.878V251.632H351.758V253.088H352.878V257.664C352.878 259.248 353.742 260.144 355.406 260.144ZM362.145 260.16C364.289 260.16 365.713 259.2 365.985 257.44H364.113C363.969 258.256 363.361 258.72 362.193 258.72C360.753 258.72 359.953 257.824 359.889 256.24H366.017V255.68C366.017 252.688 364.145 251.456 362.065 251.456C359.681 251.456 357.905 253.184 357.905 255.776V255.904C357.905 258.544 359.681 260.16 362.145 260.16ZM359.921 254.944C360.113 253.648 360.897 252.864 362.065 252.864C363.265 252.864 364.001 253.504 364.097 254.944H359.921ZM367.746 260H369.682V255.648C369.682 253.872 370.706 253.328 372.402 253.312V251.504C370.994 251.52 370.21 252.144 369.682 253.2V251.632H367.746V260ZM380.766 260.144C381.358 260.144 381.774 260.048 382.078 259.936V258.4C381.806 258.512 381.518 258.56 381.134 258.56C380.526 258.56 380.174 258.224 380.174 257.488V253.088H382.014V251.632H380.174V249.792H378.238V251.632H377.118V253.088H378.238V257.664C378.238 259.248 379.102 260.144 380.766 260.144ZM383.824 260H385.76V255.072C385.76 253.744 386.64 253.072 387.728 253.072C388.88 253.072 389.392 253.648 389.392 254.912V260H391.328V254.736C391.328 252.432 390.144 251.456 388.464 251.456C387.088 251.456 386.16 252.144 385.76 252.96V247.76H383.824V260ZM395.75 260.16C397.03 260.16 397.766 259.696 398.31 258.976V260H400.214V254.512C400.214 252.224 398.742 251.456 396.87 251.456C394.998 251.456 393.446 252.272 393.286 254.224H395.158C395.254 253.392 395.75 252.912 396.758 252.912C397.894 252.912 398.278 253.472 398.278 254.592V255.024H397.238C394.838 255.024 392.95 255.728 392.95 257.68C392.95 259.424 394.214 260.16 395.75 260.16ZM396.214 258.768C395.254 258.768 394.87 258.304 394.87 257.6C394.87 256.576 395.814 256.24 397.286 256.24H398.278V257.072C398.278 258.144 397.398 258.768 396.214 258.768ZM402.433 260H404.369V255.072C404.369 253.744 405.249 253.072 406.337 253.072C407.489 253.072 408.001 253.648 408.001 254.912V260H409.937V254.736C409.937 252.432 408.753 251.456 407.073 251.456C405.697 251.456 404.769 252.144 404.369 252.96V251.632H402.433V260ZM420.988 260H423.052V257.68H424.588V256.096H423.052V248.56H420.38L415.324 256.928V257.68H420.988V260ZM417.596 256.096L421.02 250.176V256.096H417.596ZM427.226 260.112C427.946 260.112 428.506 259.568 428.506 258.864C428.506 258.16 427.946 257.6 427.226 257.6C426.522 257.6 425.962 258.16 425.962 258.864C425.962 259.568 426.522 260.112 427.226 260.112ZM433.969 260.16C436.433 260.16 438.177 258.64 438.177 256.224C438.177 253.824 436.721 252.384 434.657 252.384C433.441 252.384 432.641 252.832 432.193 253.344L432.209 250.24H437.521V248.56H430.577L430.481 254.928H431.569C432.081 254.336 432.785 253.936 433.953 253.936C435.217 253.936 436.017 254.816 436.017 256.192C436.017 257.6 435.265 258.512 433.953 258.512C432.481 258.512 432.049 257.776 431.873 256.72H429.889C430.017 258.688 431.281 260.16 433.969 260.16ZM441.181 260.112C441.901 260.112 442.461 259.568 442.461 258.864C442.461 258.16 441.901 257.6 441.181 257.6C440.477 257.6 439.917 258.16 439.917 258.864C439.917 259.568 440.477 260.112 441.181 260.112ZM441.181 255.44C441.901 255.44 442.461 254.88 442.461 254.176C442.461 253.472 441.901 252.928 441.181 252.928C440.477 252.928 439.917 253.472 439.917 254.176C439.917 254.88 440.477 255.44 441.181 255.44ZM446.178 260H448.322V248.56H446.418L443.762 250.448V252.32L446.178 250.672V260ZM451.367 261.968L453.463 258.384L451.623 257.648L450.167 261.44L451.367 261.968ZM174.88 288H176.864L178.56 282.368L180.112 288H182.08L184.704 279.632H182.816L181.072 285.68L179.44 279.632H177.824L176.048 285.68L174.384 279.632H172.32L174.88 288ZM186.183 288H188.119V283.072C188.119 281.744 188.999 281.072 190.087 281.072C191.239 281.072 191.751 281.648 191.751 282.912V288H193.687V282.736C193.687 280.432 192.503 279.456 190.823 279.456C189.447 279.456 188.519 280.144 188.119 280.96V275.76H186.183V288ZM195.966 288H197.902V279.632H195.966V288ZM196.91 278.256C197.55 278.256 198.062 277.776 198.062 277.152C198.062 276.512 197.55 276.032 196.91 276.032C196.27 276.032 195.758 276.512 195.758 277.152C195.758 277.776 196.27 278.256 196.91 278.256ZM203.925 288.16C206.197 288.16 207.653 286.8 207.797 284.88H206.021C205.909 286.064 205.029 286.672 204.005 286.672C202.581 286.672 201.685 285.712 201.685 283.888V283.76C201.685 282.032 202.629 281.008 203.957 281.008C204.981 281.008 205.717 281.472 205.877 282.592H207.749C207.525 280.288 205.781 279.456 203.925 279.456C201.589 279.456 199.701 281.136 199.701 283.792V283.92C199.701 286.592 201.525 288.16 203.925 288.16ZM209.465 288H211.401V283.072C211.401 281.744 212.281 281.072 213.369 281.072C214.521 281.072 215.033 281.648 215.033 282.912V288H216.969V282.736C216.969 280.432 215.785 279.456 214.105 279.456C212.729 279.456 211.801 280.144 211.401 280.96V275.76H209.465V288ZM223.347 288H225.283V281.088H227.187V279.632H225.283V278.432C225.283 277.712 225.603 277.2 226.387 277.2C226.739 277.2 227.043 277.264 227.267 277.344V275.84C226.915 275.728 226.627 275.68 226.163 275.68C224.371 275.68 223.347 276.672 223.347 278.512V279.632H222.211V281.088H223.347V288ZM232.24 286.656C230.768 286.656 229.92 285.584 229.92 283.872V283.744C229.92 282.016 230.8 280.976 232.24 280.976C233.68 280.976 234.544 282.032 234.544 283.76V283.872C234.544 285.584 233.68 286.656 232.24 286.656ZM232.224 288.16C234.688 288.16 236.528 286.464 236.528 283.856V283.728C236.528 281.168 234.688 279.456 232.24 279.456C229.776 279.456 227.936 281.184 227.936 283.776V283.904C227.936 286.448 229.76 288.16 232.224 288.16ZM238.325 288H240.261V275.76H238.325V288ZM242.669 288H244.605V275.76H242.669V288ZM250.709 286.656C249.237 286.656 248.389 285.584 248.389 283.872V283.744C248.389 282.016 249.269 280.976 250.709 280.976C252.149 280.976 253.013 282.032 253.013 283.76V283.872C253.013 285.584 252.149 286.656 250.709 286.656ZM250.693 288.16C253.157 288.16 254.997 286.464 254.997 283.856V283.728C254.997 281.168 253.157 279.456 250.709 279.456C248.245 279.456 246.405 281.184 246.405 283.776V283.904C246.405 286.448 248.229 288.16 250.693 288.16ZM258.239 288H260.223L261.919 282.368L263.471 288H265.439L268.063 279.632H266.175L264.431 285.68L262.799 279.632H261.183L259.407 285.68L257.743 279.632H255.679L258.239 288ZM272.407 288.16C274.551 288.16 275.751 287.184 275.751 285.488C275.751 283.712 274.583 283.232 272.615 282.928C271.287 282.704 270.887 282.464 270.887 281.856C270.887 281.264 271.383 280.864 272.215 280.864C273.111 280.864 273.543 281.216 273.703 281.984H275.495C275.287 280.096 273.927 279.456 272.215 279.456C270.647 279.456 269.079 280.288 269.079 281.968C269.079 283.536 269.895 284.16 272.103 284.512C273.335 284.72 273.895 284.976 273.895 285.664C273.895 286.368 273.431 286.736 272.391 286.736C271.255 286.736 270.823 286.24 270.727 285.392H268.903C268.983 287.168 270.247 288.16 272.407 288.16ZM283.373 288H285.405L287.725 279.664L289.981 288H292.109L294.973 276.56H292.989L290.941 285.008L288.669 276.56H286.909L284.685 284.96L282.701 276.56H280.525L283.373 288ZM301.304 288.16C304.024 288.16 305.976 286.768 306.312 284.016H304.232C304.008 285.632 302.888 286.432 301.304 286.432C299.192 286.432 297.96 284.912 297.96 282.336V282.208C297.96 279.648 299.272 278.08 301.288 278.08C302.936 278.08 303.784 278.864 304.024 280.384H306.184C305.928 277.696 303.896 276.384 301.272 276.384C298.088 276.384 295.72 278.784 295.72 282.224V282.352C295.72 285.872 297.72 288.16 301.304 288.16ZM307.041 288H309.041L309.937 285.168H314.305L315.217 288H317.425L313.649 276.56H310.865L307.041 288ZM312.129 278.304L313.809 283.616H310.433L312.129 278.304ZM323.667 288.16C326.899 288.16 328.883 286.24 328.883 283.072V282.016H323.907V283.616H326.787C326.723 285.2 325.843 286.496 323.699 286.496C321.299 286.496 320.163 284.816 320.163 282.368V282.24C320.163 279.728 321.459 278.064 323.699 278.064C325.187 278.064 326.211 278.72 326.467 280.24H328.595C328.291 277.504 326.115 276.384 323.667 276.384C320.323 276.384 317.955 278.816 317.955 282.224V282.352C317.955 285.728 320.003 288.16 323.667 288.16ZM333.678 288H341.95V286.352H337.086L339.63 283.872C340.99 282.56 341.87 281.264 341.87 279.776C341.87 277.76 340.462 276.4 338.094 276.4C335.678 276.4 334.174 277.84 334.03 280.336H335.982C336.174 278.72 336.894 278.064 338.03 278.064C339.134 278.064 339.742 278.736 339.742 279.808C339.742 280.896 339.086 281.904 337.998 283.056L333.678 287.616V288ZM344.913 288.112C345.633 288.112 346.193 287.568 346.193 286.864C346.193 286.16 345.633 285.6 344.913 285.6C344.209 285.6 343.649 286.16 343.649 286.864C343.649 287.568 344.209 288.112 344.913 288.112ZM352.102 286.464C350.39 286.464 349.398 285.152 349.398 282.56V281.984C349.398 279.44 350.342 278.064 352.07 278.064C353.782 278.064 354.71 279.536 354.71 281.968V282.528C354.71 285.12 353.862 286.464 352.102 286.464ZM352.054 288.16C355.046 288.16 356.838 285.968 356.838 282.528V281.952C356.838 278.512 354.95 276.4 352.054 276.4C349.174 276.4 347.254 278.528 347.254 282V282.576C347.254 286.016 349.142 288.16 352.054 288.16ZM366.189 291.072C368.781 291.072 370.429 289.84 370.445 287.376V279.632H368.509V280.912C368.029 280.08 367.197 279.456 365.821 279.456C363.661 279.456 362.061 281.216 362.061 283.568V283.68C362.061 286.096 363.677 287.664 365.773 287.664C367.005 287.664 368.045 286.912 368.509 286.112V287.344C368.509 288.848 367.677 289.6 366.173 289.6C364.909 289.6 364.269 289.12 364.109 288.288H362.157C362.381 289.888 363.565 291.072 366.189 291.072ZM366.253 286.176C365.005 286.176 364.045 285.216 364.045 283.664V283.536C364.045 282.016 364.877 280.976 366.317 280.976C367.709 280.976 368.573 281.92 368.573 283.504V283.616C368.573 285.216 367.597 286.176 366.253 286.176ZM375.546 288.16C376.906 288.16 377.786 287.504 378.202 286.688V288H380.138V279.632H378.202V284.608C378.202 285.936 377.29 286.608 376.25 286.608C375.13 286.608 374.602 286.032 374.602 284.768V279.632H372.666V284.992C372.666 287.216 373.898 288.16 375.546 288.16ZM382.481 288H384.417V279.632H382.481V288ZM383.425 278.256C384.065 278.256 384.577 277.776 384.577 277.152C384.577 276.512 384.065 276.032 383.425 276.032C382.785 276.032 382.273 276.512 382.273 277.152C382.273 277.776 382.785 278.256 383.425 278.256ZM389.913 288.16C391.145 288.16 392.217 287.424 392.665 286.592V288H394.601V275.76H392.665V280.912C392.201 280.08 391.353 279.456 389.993 279.456C387.817 279.456 386.233 281.152 386.233 283.824V283.952C386.233 286.672 387.817 288.16 389.913 288.16ZM390.393 286.624C389.145 286.624 388.217 285.744 388.217 283.904V283.776C388.217 281.968 389.049 280.976 390.473 280.976C391.881 280.976 392.729 281.888 392.729 283.728V283.856C392.729 285.728 391.737 286.624 390.393 286.624ZM400.582 288.16C402.726 288.16 404.15 287.2 404.422 285.44H402.55C402.406 286.256 401.798 286.72 400.63 286.72C399.19 286.72 398.39 285.824 398.326 284.24H404.454V283.68C404.454 280.688 402.582 279.456 400.502 279.456C398.118 279.456 396.342 281.184 396.342 283.776V283.904C396.342 286.544 398.118 288.16 400.582 288.16ZM398.358 282.944C398.55 281.648 399.334 280.864 400.502 280.864C401.702 280.864 402.438 281.504 402.534 282.944H398.358ZM406.231 288H408.167V275.76H406.231V288ZM410.575 288H412.511V279.632H410.575V288ZM411.519 278.256C412.159 278.256 412.671 277.776 412.671 277.152C412.671 276.512 412.159 276.032 411.519 276.032C410.879 276.032 410.367 276.512 410.367 277.152C410.367 277.776 410.879 278.256 411.519 278.256ZM414.871 288H416.807V283.072C416.807 281.744 417.687 281.072 418.775 281.072C419.927 281.072 420.439 281.648 420.439 282.912V288H422.375V282.736C422.375 280.432 421.191 279.456 419.511 279.456C418.135 279.456 417.207 280.144 416.807 280.96V279.632H414.871V288ZM428.285 288.16C430.429 288.16 431.853 287.2 432.125 285.44H430.253C430.109 286.256 429.501 286.72 428.333 286.72C426.893 286.72 426.093 285.824 426.029 284.24H432.157V283.68C432.157 280.688 430.285 279.456 428.205 279.456C425.821 279.456 424.045 281.184 424.045 283.776V283.904C424.045 286.544 425.821 288.16 428.285 288.16ZM426.061 282.944C426.253 281.648 427.037 280.864 428.205 280.864C429.405 280.864 430.141 281.504 430.237 282.944H426.061ZM436.829 288.16C438.973 288.16 440.173 287.184 440.173 285.488C440.173 283.712 439.005 283.232 437.036 282.928C435.709 282.704 435.309 282.464 435.309 281.856C435.309 281.264 435.805 280.864 436.637 280.864C437.533 280.864 437.965 281.216 438.125 281.984H439.917C439.709 280.096 438.349 279.456 436.637 279.456C435.069 279.456 433.501 280.288 433.501 281.968C433.501 283.536 434.317 284.16 436.525 284.512C437.757 284.72 438.317 284.976 438.317 285.664C438.317 286.368 437.853 286.736 436.812 286.736C435.677 286.736 435.245 286.24 435.149 285.392H433.325C433.405 287.168 434.669 288.16 436.829 288.16ZM443.023 288.112C443.743 288.112 444.303 287.568 444.303 286.864C444.303 286.16 443.743 285.6 443.023 285.6C442.319 285.6 441.759 286.16 441.759 286.864C441.759 287.568 442.319 288.112 443.023 288.112Z" fill="#1E262D"/>
<rect x="248" y="94" width="60" height="28" rx="14" fill="#F3F7FA"/>
<rect x="316" y="94" width="60" height="28" rx="14" fill="#F3F7FA"/>
<rect x="384" y="94" width="60" height="28" rx="14" fill="#F3F7FA"/>
<rect x="572" y="94" width="28" height="28" rx="14" fill="#F3F7FA"/>
</svg>
