<svg width="752" height="484" viewBox="0 0 752 484" fill="none" xmlns="http://www.w3.org/2000/svg">
<g filter="url(#filter0_d)">
<rect x="16" y="14" width="720" height="452" rx="20" fill="white"/>
</g>
<path d="M51 80C59.2843 80 66 73.2843 66 65C66 56.7157 59.2843 50 51 50C42.7157 50 36 56.7157 36 65C36 73.2843 42.7157 80 51 80Z" fill="#F3F7FA"/>
<path d="M42 38C45.3137 38 48 35.3137 48 32C48 28.6863 45.3137 26 42 26C38.6863 26 36 28.6863 36 32C36 35.3137 38.6863 38 42 38Z" fill="#F3F7FA"/>
<path d="M58 38C61.3137 38 64 35.3137 64 32C64 28.6863 61.3137 26 58 26C54.6863 26 52 28.6863 52 32C52 35.3137 54.6863 38 58 38Z" fill="#F3F7FA"/>
<path d="M74 38C77.3137 38 80 35.3137 80 32C80 28.6863 77.3137 26 74 26C70.6863 26 68 28.6863 68 32C68 35.3137 70.6863 38 74 38Z" fill="#F3F7FA"/>
<path d="M89 80C97.2843 80 104 73.2843 104 65C104 56.7157 97.2843 50 89 50C80.7157 50 74 56.7157 74 65C74 73.2843 80.7157 80 89 80Z" fill="#F3F7FA"/>
<rect x="124" y="50" width="592" height="30" rx="15" fill="#F3F7FA"/>
<rect x="36" y="96" width="680" height="4" rx="2" fill="#F3F7FA"/>
<rect x="36" y="120" width="120" height="28" rx="14" fill="#F3F7FA"/>
<path d="M192 409C192 400.163 199.163 393 208 393H684C692.837 393 700 400.163 700 409V466H192V409Z" fill="#F3F7FA"/>
<rect x="36" y="165" width="90" height="20" rx="10" fill="#F3F7FA"/>
<rect x="36" y="197" width="90" height="20" rx="10" fill="#F3F7FA"/>
<rect x="36" y="229" width="90" height="20" rx="10" fill="#F3F7FA"/>
<rect x="36" y="261" width="90" height="20" rx="10" fill="#F3F7FA"/>
<rect x="68" y="422" width="82" height="20" rx="10" fill="#F3F7FA"/>
<rect x="36" y="422" width="20" height="20" rx="10" fill="#F3F7FA"/>
<rect x="194" y="122" width="504" height="189" rx="14" stroke="#BE5AFF" stroke-width="4"/>
<rect x="192" y="329" width="250" height="40" rx="8" fill="#4D25BA"/>
<path d="M291.6 223.208V213.632H292.68C295.656 213.632 296.952 215.024 296.952 218.288V218.48C296.952 221.672 295.656 223.208 292.728 223.208H291.6ZM286.656 227H292.872C298.92 227 302.088 223.76 302.088 218.408V218.216C302.088 212.888 298.992 209.84 292.896 209.84H286.656V227ZM304.108 227H308.404V221.048C308.404 219.032 309.844 218.216 312.46 218.288V214.28C310.516 214.256 309.196 215.072 308.404 216.944V214.448H304.108V227ZM317.667 227.288C319.683 227.288 320.787 226.448 321.387 225.536V227H325.563V218.864C325.563 215.528 323.355 214.112 319.899 214.112C316.467 214.112 314.091 215.6 313.899 218.624H317.931C318.027 217.832 318.459 217.136 319.635 217.136C321.003 217.136 321.291 217.928 321.291 219.128V219.416H320.091C315.915 219.416 313.419 220.568 313.419 223.52C313.419 226.184 315.411 227.288 317.667 227.288ZM319.155 224.384C318.147 224.384 317.667 223.928 317.667 223.208C317.667 222.176 318.435 221.84 320.163 221.84H321.291V222.608C321.291 223.688 320.379 224.384 319.155 224.384ZM333.894 231.656C338.382 231.656 340.854 229.688 340.854 225.944V214.448H336.558V216.224C335.838 214.952 334.662 214.112 332.67 214.112C329.718 214.112 327.342 216.464 327.342 220.16V220.352C327.342 224.216 329.742 226.376 332.67 226.376C334.542 226.376 335.91 225.272 336.558 224.072V225.992C336.558 227.552 335.79 228.632 333.894 228.632C332.334 228.632 331.782 227.912 331.59 227H327.318C327.654 229.856 329.622 231.656 333.894 231.656ZM334.182 223.208C332.646 223.208 331.734 222.104 331.734 220.376V220.184C331.734 218.456 332.598 217.328 334.206 217.328C335.79 217.328 336.678 218.432 336.678 220.16V220.328C336.678 222.104 335.718 223.208 334.182 223.208ZM364.78 218.072H361.036L359.788 220.52L357.628 217.88C359.956 216.872 361.06 215.504 361.06 213.632C361.06 210.992 358.588 209.624 355.852 209.624C352.828 209.624 350.332 211.184 350.332 214.112C350.332 214.928 350.644 216.056 351.388 217.112C348.964 218.264 347.62 219.896 347.62 222.104C347.62 225.368 349.996 227.288 353.644 227.288C355.876 227.288 357.196 226.616 358.276 225.752L359.284 227H364.876L362.02 223.496L364.78 218.072ZM354.388 223.712C352.948 223.712 352.204 222.824 352.204 221.576C352.204 220.64 352.708 220.112 353.356 219.728L356.068 222.992C355.612 223.472 355.036 223.712 354.388 223.712ZM354.556 214.16C354.556 213.224 355.156 212.672 355.972 212.672C356.74 212.672 357.244 213.224 357.244 213.992C357.244 214.88 356.692 215.528 355.54 216.08C354.94 215.384 354.556 214.784 354.556 214.16ZM376.467 223.208V213.632H377.547C380.523 213.632 381.819 215.024 381.819 218.288V218.48C381.819 221.672 380.523 223.208 377.595 223.208H376.467ZM371.523 227H377.739C383.787 227 386.955 223.76 386.955 218.408V218.216C386.955 212.888 383.859 209.84 377.763 209.84H371.523V227ZM388.975 227H393.271V221.048C393.271 219.032 394.711 218.216 397.327 218.288V214.28C395.383 214.256 394.063 215.072 393.271 216.944V214.448H388.975V227ZM405.34 224.096C403.684 224.096 402.844 222.92 402.844 220.76V220.568C402.844 218.456 403.732 217.328 405.34 217.328C406.972 217.328 407.812 218.504 407.812 220.616V220.808C407.812 222.896 406.948 224.096 405.34 224.096ZM405.316 227.288C409.18 227.288 412.18 224.84 412.18 220.76V220.568C412.18 216.584 409.204 214.112 405.34 214.112C401.452 214.112 398.452 216.656 398.452 220.688V220.88C398.452 224.936 401.452 227.288 405.316 227.288ZM414.053 231.2H418.349V225.152C418.973 226.4 420.341 227.288 422.237 227.288C425.189 227.288 427.565 225.128 427.565 220.808V220.616C427.565 216.32 425.189 214.112 422.261 214.112C420.365 214.112 419.069 215.12 418.349 216.32V214.448H414.053V231.2ZM420.725 224C419.165 224 418.229 222.92 418.229 220.784V220.592C418.229 218.48 419.165 217.352 420.725 217.352C422.237 217.352 423.197 218.408 423.197 220.616V220.808C423.197 222.872 422.333 224 420.725 224ZM434.594 227H439.538V220.928H444.842V217.304H439.538V213.656H446.186V209.84H434.594V227ZM447.994 227H452.29V214.448H447.994V227ZM450.13 213.248C451.474 213.248 452.506 212.312 452.506 211.04C452.506 209.768 451.474 208.808 450.13 208.808C448.786 208.808 447.778 209.768 447.778 211.04C447.778 212.312 448.786 213.248 450.13 213.248ZM455.072 227H459.344V208.928H455.072V227ZM468.15 227.288C471.942 227.288 474.126 225.68 474.51 222.848H470.478C470.31 223.688 469.71 224.336 468.294 224.336C466.758 224.336 465.798 223.376 465.678 221.72H474.51V220.592C474.51 216.08 471.558 214.112 468.126 214.112C464.334 214.112 461.334 216.656 461.334 220.688V220.88C461.334 224.984 464.214 227.288 468.15 227.288ZM465.726 219.296C465.942 217.784 466.83 216.944 468.126 216.944C469.518 216.944 470.262 217.784 470.334 219.296H465.726ZM481.387 227.288C484.867 227.288 487.075 225.944 487.075 222.968C487.075 220.28 485.395 219.368 481.915 218.936C480.379 218.744 479.803 218.504 479.803 217.904C479.803 217.328 480.283 216.92 481.219 216.92C482.203 216.92 482.659 217.328 482.827 218.168H486.715C486.427 215.168 484.267 214.112 481.171 214.112C478.267 214.112 475.795 215.456 475.795 218.24C475.795 220.856 477.211 221.84 480.571 222.272C482.299 222.512 482.899 222.8 482.899 223.4C482.899 224.024 482.419 224.432 481.363 224.432C480.139 224.432 479.731 223.928 479.587 223.016H475.627C475.723 225.8 477.811 227.288 481.387 227.288ZM498.545 227.288C499.553 227.288 500.369 227.072 500.921 226.928V223.664C500.537 223.808 500.177 223.88 499.697 223.88C498.881 223.88 498.425 223.472 498.425 222.56V217.376H500.897V214.448H498.425V211.832H494.129V214.448H492.617V217.376H494.129V222.968C494.129 225.92 495.713 227.288 498.545 227.288ZM509.097 224.096C507.441 224.096 506.601 222.92 506.601 220.76V220.568C506.601 218.456 507.489 217.328 509.097 217.328C510.729 217.328 511.569 218.504 511.569 220.616V220.808C511.569 222.896 510.705 224.096 509.097 224.096ZM509.073 227.288C512.937 227.288 515.937 224.84 515.937 220.76V220.568C515.937 216.584 512.961 214.112 509.097 214.112C505.209 214.112 502.209 216.656 502.209 220.688V220.88C502.209 224.936 505.209 227.288 509.073 227.288ZM530.417 227.288C535.145 227.288 538.073 224.96 538.073 219.968V209.84H533.105V219.752C533.105 222.32 532.457 223.424 530.417 223.424C528.329 223.424 527.729 222.248 527.729 219.824V209.84H522.809V220.04C522.809 224.84 525.569 227.288 530.417 227.288ZM540.756 231.2H545.052V225.152C545.676 226.4 547.044 227.288 548.94 227.288C551.892 227.288 554.268 225.128 554.268 220.808V220.616C554.268 216.32 551.892 214.112 548.964 214.112C547.068 214.112 545.772 215.12 545.052 216.32V214.448H540.756V231.2ZM547.428 224C545.868 224 544.932 222.92 544.932 220.784V220.592C544.932 218.48 545.868 217.352 547.428 217.352C548.94 217.352 549.9 218.408 549.9 220.616V220.808C549.9 222.872 549.036 224 547.428 224ZM556.298 227H560.57V208.928H556.298V227ZM569.449 224.096C567.793 224.096 566.953 222.92 566.953 220.76V220.568C566.953 218.456 567.841 217.328 569.449 217.328C571.081 217.328 571.921 218.504 571.921 220.616V220.808C571.921 222.896 571.057 224.096 569.449 224.096ZM569.425 227.288C573.289 227.288 576.289 224.84 576.289 220.76V220.568C576.289 216.584 573.313 214.112 569.449 214.112C565.561 214.112 562.561 216.656 562.561 220.688V220.88C562.561 224.936 565.561 227.288 569.425 227.288ZM581.691 227.288C583.707 227.288 584.811 226.448 585.411 225.536V227H589.587V218.864C589.587 215.528 587.379 214.112 583.923 214.112C580.491 214.112 578.115 215.6 577.923 218.624H581.955C582.051 217.832 582.483 217.136 583.659 217.136C585.027 217.136 585.315 217.928 585.315 219.128V219.416H584.115C579.939 219.416 577.443 220.568 577.443 223.52C577.443 226.184 579.435 227.288 581.691 227.288ZM583.179 224.384C582.171 224.384 581.691 223.928 581.691 223.208C581.691 222.176 582.459 221.84 584.187 221.84H585.315V222.608C585.315 223.688 584.403 224.384 583.179 224.384ZM596.694 227.288C598.59 227.288 599.982 226.256 600.606 224.96V227H604.902V208.928H600.606V216.224C599.886 214.952 598.71 214.112 596.742 214.112C593.766 214.112 591.414 216.392 591.414 220.664V220.856C591.414 225.2 593.79 227.288 596.694 227.288ZM598.206 224C596.718 224 595.782 222.92 595.782 220.808V220.616C595.782 218.432 596.646 217.352 598.254 217.352C599.838 217.352 600.726 218.48 600.726 220.592V220.784C600.726 222.92 599.766 224 598.206 224Z" fill="#BE5AFF"/>
<path d="M239.222 357.187C242.503 357.187 244.356 355.47 244.356 352.155V344.845H241.585V351.985C241.585 354.212 240.871 354.994 239.239 354.994C237.573 354.994 236.978 354.11 236.978 352.087V344.845H234.207V352.257C234.207 355.487 236.026 357.187 239.222 357.187ZM246.572 360.026H249.037V355.64C249.496 356.507 250.499 357.187 251.876 357.187C254.086 357.187 255.752 355.538 255.752 352.597V352.461C255.752 349.52 254.052 347.905 251.876 347.905C250.567 347.905 249.53 348.653 249.037 349.503V348.109H246.572V360.026ZM251.145 355.266C249.802 355.266 248.952 354.399 248.952 352.614V352.478C248.952 350.693 249.836 349.792 251.128 349.792C252.369 349.792 253.253 350.676 253.253 352.478V352.614C253.253 354.348 252.505 355.266 251.145 355.266ZM257.465 357H259.913V344.08H257.465V357ZM266.309 355.317C264.915 355.317 264.133 354.297 264.133 352.597V352.461C264.133 350.761 264.949 349.775 266.309 349.775C267.686 349.775 268.485 350.795 268.485 352.495V352.614C268.485 354.297 267.686 355.317 266.309 355.317ZM266.292 357.187C268.961 357.187 270.984 355.402 270.984 352.597V352.461C270.984 349.69 268.978 347.905 266.309 347.905C263.64 347.905 261.617 349.724 261.617 352.512V352.648C261.617 355.419 263.64 357.187 266.292 357.187ZM275.034 357.187C276.428 357.187 277.21 356.643 277.72 355.929V357H280.117V351.203C280.117 348.789 278.57 347.905 276.394 347.905C274.218 347.905 272.552 348.84 272.399 350.948H274.728C274.83 350.183 275.272 349.69 276.241 349.69C277.363 349.69 277.686 350.268 277.686 351.322V351.679H276.683C273.963 351.679 272.059 352.461 272.059 354.535C272.059 356.405 273.419 357.187 275.034 357.187ZM275.765 355.47C274.864 355.47 274.473 355.045 274.473 354.399C274.473 353.447 275.306 353.141 276.734 353.141H277.686V353.889C277.686 354.875 276.853 355.47 275.765 355.47ZM285.565 357.187C286.874 357.187 287.962 356.422 288.421 355.521V357H290.869V344.08H288.421V349.435C287.928 348.534 287.044 347.905 285.616 347.905C283.389 347.905 281.706 349.622 281.706 352.546V352.682C281.706 355.64 283.406 357.187 285.565 357.187ZM286.296 355.266C285.072 355.266 284.222 354.399 284.222 352.631V352.495C284.222 350.727 284.987 349.792 286.364 349.792C287.707 349.792 288.489 350.693 288.489 352.461V352.597C288.489 354.399 287.588 355.266 286.296 355.266ZM297.046 357H299.8V352.291H303.795V350.217H299.8V347.004H304.849V344.845H297.046V357ZM306.139 357H308.604V352.546C308.604 350.846 309.658 350.251 311.477 350.268V347.973C310.032 347.99 309.165 348.619 308.604 349.809V348.109H306.139V357ZM317.077 355.317C315.683 355.317 314.901 354.297 314.901 352.597V352.461C314.901 350.761 315.717 349.775 317.077 349.775C318.454 349.775 319.253 350.795 319.253 352.495V352.614C319.253 354.297 318.454 355.317 317.077 355.317ZM317.06 357.187C319.729 357.187 321.752 355.402 321.752 352.597V352.461C321.752 349.69 319.746 347.905 317.077 347.905C314.408 347.905 312.385 349.724 312.385 352.512V352.648C312.385 355.419 314.408 357.187 317.06 357.187ZM323.404 357H325.869V351.747C325.869 350.54 326.634 349.928 327.586 349.928C328.453 349.928 328.98 350.438 328.98 351.577V357H331.428V351.747C331.428 350.54 332.193 349.928 333.145 349.928C334.029 349.928 334.539 350.438 334.539 351.577V357H336.987V351.305C336.987 348.942 335.712 347.905 334.063 347.905C332.941 347.905 331.785 348.381 331.071 349.452C330.646 348.398 329.762 347.905 328.589 347.905C327.263 347.905 326.311 348.636 325.869 349.469V348.109H323.404V357ZM348.556 357.187C351.548 357.187 353.707 355.64 354.013 352.631H351.31C351.089 354.195 350.035 354.96 348.522 354.96C346.516 354.96 345.36 353.498 345.36 350.982V350.846C345.36 348.33 346.584 346.834 348.505 346.834C350.035 346.834 350.851 347.616 351.055 349.078H353.877C353.588 346.086 351.412 344.658 348.488 344.658C345.037 344.658 342.453 347.174 342.453 350.863V350.999C342.453 354.739 344.578 357.187 348.556 357.187ZM359.726 355.317C358.332 355.317 357.55 354.297 357.55 352.597V352.461C357.55 350.761 358.366 349.775 359.726 349.775C361.103 349.775 361.902 350.795 361.902 352.495V352.614C361.902 354.297 361.103 355.317 359.726 355.317ZM359.709 357.187C362.378 357.187 364.401 355.402 364.401 352.597V352.461C364.401 349.69 362.395 347.905 359.726 347.905C357.057 347.905 355.034 349.724 355.034 352.512V352.648C355.034 355.419 357.057 357.187 359.709 357.187ZM366.054 357H368.519V351.747C368.519 350.54 369.284 349.928 370.236 349.928C371.103 349.928 371.63 350.438 371.63 351.577V357H374.078V351.747C374.078 350.54 374.843 349.928 375.795 349.928C376.679 349.928 377.189 350.438 377.189 351.577V357H379.637V351.305C379.637 348.942 378.362 347.905 376.713 347.905C375.591 347.905 374.435 348.381 373.721 349.452C373.296 348.398 372.412 347.905 371.239 347.905C369.913 347.905 368.961 348.636 368.519 349.469V348.109H366.054V357ZM381.742 360.026H384.207V355.64C384.666 356.507 385.669 357.187 387.046 357.187C389.256 357.187 390.922 355.538 390.922 352.597V352.461C390.922 349.52 389.222 347.905 387.046 347.905C385.737 347.905 384.7 348.653 384.207 349.503V348.109H381.742V360.026ZM386.315 355.266C384.972 355.266 384.122 354.399 384.122 352.614V352.478C384.122 350.693 385.006 349.792 386.298 349.792C387.539 349.792 388.423 350.676 388.423 352.478V352.614C388.423 354.348 387.675 355.266 386.315 355.266ZM395.525 357.187C396.987 357.187 397.888 356.507 398.347 355.606V357H400.795V348.109H398.347V353.328C398.347 354.637 397.531 355.283 396.494 355.283C395.44 355.283 394.947 354.705 394.947 353.498V348.109H392.499V353.838C392.499 356.167 393.791 357.187 395.525 357.187ZM406.223 357.17C406.886 357.17 407.379 357.051 407.719 356.932V355.028C407.43 355.147 407.158 355.198 406.784 355.198C406.155 355.198 405.798 354.858 405.798 354.144V349.86H407.668V348.109H405.798V346.188H403.35V348.109H402.211V349.86H403.35V354.365C403.35 356.218 404.353 357.17 406.223 357.17ZM413.481 357.187C415.912 357.187 417.442 356.116 417.731 354.195H415.402C415.249 354.943 414.688 355.436 413.549 355.436C412.206 355.436 411.407 354.586 411.339 353.107H417.748V352.427C417.748 349.248 415.708 347.905 413.413 347.905C410.829 347.905 408.84 349.724 408.84 352.529V352.665C408.84 355.504 410.795 357.187 413.481 357.187ZM411.373 351.594C411.56 350.336 412.308 349.605 413.413 349.605C414.586 349.605 415.266 350.251 415.351 351.594H411.373ZM419.361 357H421.826V352.546C421.826 350.846 422.88 350.251 424.699 350.268V347.973C423.254 347.99 422.387 348.619 421.826 349.809V348.109H419.361V357Z" fill="white"/>
<path d="M224.5 351.5V353.5C224.5 355.709 222.709 357.5 220.5 357.5H212.5C210.291 357.5 208.5 355.709 208.5 353.5V351.5" stroke="white" stroke-width="3" stroke-linecap="round"/>
<path d="M216.5 352V340M216.5 340L212.5 343M216.5 340L220.5 343" stroke="white" stroke-width="3" stroke-linecap="round" stroke-linejoin="round"/>
<defs>
<filter id="filter0_d" x="0" y="0" width="752" height="484" filterUnits="userSpaceOnUse" color-interpolation-filters="sRGB">
<feFlood flood-opacity="0" result="BackgroundImageFix"/>
<feColorMatrix in="SourceAlpha" type="matrix" values="0 0 0 0 0 0 0 0 0 0 0 0 0 0 0 0 0 0 127 0"/>
<feOffset dy="2"/>
<feGaussianBlur stdDeviation="8"/>
<feColorMatrix type="matrix" values="0 0 0 0 0 0 0 0 0 0 0 0 0 0 0 0 0 0 0.1 0"/>
<feBlend mode="normal" in2="BackgroundImageFix" result="effect1_dropShadow"/>
<feBlend mode="normal" in="SourceGraphic" in2="effect1_dropShadow" result="shape"/>
</filter>
</defs>
</svg>
