<svg width="460" height="484" viewBox="0 0 460 484" fill="none" xmlns="http://www.w3.org/2000/svg">
<g filter="url(#filter0_di)">
<rect x="99.9961" y="14" width="260" height="452" rx="20" fill="white"/>
</g>
<rect x="121.996" y="416" width="216" height="28" rx="4" fill="#3F7FEF"/>
<path d="M109.996 34C109.996 28.4771 114.473 24 119.996 24H164.112C166.722 24 169.228 25.02 171.095 26.8422L184.604 40.0209C187.218 42.5721 190.727 44 194.38 44H229.996H265.612C269.265 44 272.774 42.572 275.389 40.0209L288.897 26.8422C290.765 25.02 293.271 24 295.88 24H339.996C345.519 24 349.996 28.4772 349.996 34V446C349.996 451.523 345.519 456 339.996 456H119.996C114.473 456 109.996 451.523 109.996 446V34Z" stroke="#F3F7FA" stroke-width="4"/>
<path d="M229.996 210C250.983 210 267.996 192.987 267.996 172C267.996 151.013 250.983 134 229.996 134C209.009 134 191.996 151.013 191.996 172C191.996 192.987 209.009 210 229.996 210Z" fill="#3F7FEF"/>
<path d="M212.996 170.353L223.608 183.132C223.992 183.593 224.692 183.616 225.105 183.179L246.996 160" stroke="white" stroke-width="8" stroke-linecap="round"/>
<path d="M157.076 254.44C163.836 254.44 167.996 250.4 167.996 245.32C167.996 239.4 164.436 237.52 157.516 236.64C153.116 236 152.196 235.04 152.196 233C152.196 231.08 153.636 229.76 156.476 229.76C159.316 229.76 160.836 230.96 161.236 233.56H167.196C166.676 227.88 162.916 225 156.476 225C150.156 225 146.076 228.64 146.076 233.52C146.076 239.04 149.076 241.24 156.396 242.2C160.596 242.84 161.796 243.64 161.796 245.92C161.796 248.16 159.916 249.72 157.076 249.72C152.836 249.72 151.756 247.6 151.476 245.04H145.276C145.636 250.76 149.236 254.44 157.076 254.44ZM178.907 254.44C182.347 254.44 184.467 252.84 185.547 250.72V254H191.307V233.08H185.547V245.36C185.547 248.44 183.627 249.96 181.187 249.96C178.707 249.96 177.547 248.6 177.547 245.76V233.08H171.787V246.56C171.787 252.04 174.827 254.44 178.907 254.44ZM205.919 254.44C211.999 254.44 215.599 251 215.919 246.04H210.679C210.399 248.72 208.519 250.08 206.199 250.08C202.959 250.08 201.079 247.92 201.079 243.72V243.4C201.079 239.4 203.079 237.16 206.079 237.16C208.439 237.16 209.919 238.28 210.319 240.72H215.799C215.279 234.72 210.799 232.6 205.959 232.6C199.999 232.6 195.159 236.72 195.159 243.48V243.8C195.159 250.64 199.799 254.44 205.919 254.44ZM229.044 254.44C235.124 254.44 238.724 251 239.044 246.04H233.804C233.524 248.72 231.644 250.08 229.324 250.08C226.084 250.08 224.204 247.92 224.204 243.72V243.4C224.204 239.4 226.204 237.16 229.204 237.16C231.564 237.16 233.044 238.28 233.444 240.72H238.924C238.404 234.72 233.924 232.6 229.084 232.6C223.124 232.6 218.284 236.72 218.284 243.48V243.8C218.284 250.64 222.924 254.44 229.044 254.44ZM252.329 254.44C258.049 254.44 261.649 251.92 262.329 247.4H256.849C256.489 249.16 255.169 250.32 252.489 250.32C249.329 250.32 247.449 248.32 247.289 244.84H262.369V243.24C262.369 235.76 257.569 232.6 252.169 232.6C246.089 232.6 241.409 236.88 241.409 243.48V243.8C241.409 250.48 246.009 254.44 252.329 254.44ZM247.369 241.28C247.809 238.32 249.569 236.6 252.169 236.6C254.929 236.6 256.529 238.12 256.729 241.28H247.369ZM273.961 254.44C279.481 254.44 282.761 252.08 282.761 247.56C282.761 243.08 279.881 241.76 274.641 241C271.601 240.56 270.601 240.04 270.601 238.72C270.601 237.44 271.681 236.56 273.561 236.56C275.561 236.56 276.521 237.36 276.841 239.08H282.161C281.641 234.28 278.161 232.6 273.521 232.6C269.241 232.6 265.241 234.76 265.241 239.12C265.241 243.2 267.401 244.8 272.961 245.64C275.961 246.08 277.201 246.68 277.201 248.12C277.201 249.56 276.161 250.4 273.921 250.4C271.401 250.4 270.481 249.32 270.241 247.44H264.841C265.041 251.96 268.321 254.44 273.961 254.44ZM294.039 254.44C299.559 254.44 302.839 252.08 302.839 247.56C302.839 243.08 299.959 241.76 294.719 241C291.679 240.56 290.679 240.04 290.679 238.72C290.679 237.44 291.759 236.56 293.639 236.56C295.639 236.56 296.599 237.36 296.919 239.08H302.239C301.719 234.28 298.239 232.6 293.599 232.6C289.319 232.6 285.319 234.76 285.319 239.12C285.319 243.2 287.479 244.8 293.039 245.64C296.039 246.08 297.279 246.68 297.279 248.12C297.279 249.56 296.239 250.4 293.999 250.4C291.479 250.4 290.559 249.32 290.319 247.44H284.919C285.119 251.96 288.399 254.44 294.039 254.44ZM310.277 254.36C312.277 254.36 313.917 252.84 313.917 250.92C313.917 248.96 312.277 247.44 310.277 247.44C308.277 247.44 306.637 248.96 306.637 250.92C306.637 252.84 308.277 254.36 310.277 254.36ZM307.957 245.08H312.677L313.557 225.4H307.077L307.957 245.08Z" fill="#3F7FEF"/>
<path d="M154.282 281H155.674V276.024L159.29 269.56H157.898L155.018 274.872L152.026 269.56H150.458L154.282 276.008V281ZM163.359 280.04C161.663 280.04 160.623 278.792 160.623 276.888V276.76C160.623 274.84 161.679 273.592 163.359 273.592C165.023 273.592 166.095 274.84 166.095 276.776V276.888C166.095 278.776 165.039 280.04 163.359 280.04ZM163.343 281.144C165.727 281.144 167.471 279.4 167.471 276.872V276.744C167.471 274.232 165.727 272.488 163.359 272.488C160.991 272.488 159.247 274.248 159.247 276.76V276.888C159.247 279.336 160.959 281.144 163.343 281.144ZM172.36 281.144C173.704 281.144 174.632 280.456 175.016 279.672V281H176.344V272.632H175.016V277.704C175.016 279.208 173.896 279.992 172.712 279.992C171.4 279.992 170.776 279.336 170.776 277.864V272.632H169.448V277.928C169.448 280.232 170.696 281.144 172.36 281.144ZM179.028 281H180.356V276.408C180.356 274.344 181.428 273.816 183.108 273.736V272.488C181.604 272.536 180.884 273.192 180.356 274.136V272.632H179.028V281ZM190.958 281H192.414L194.366 274.728L196.11 281H197.582L200.19 272.632H198.83L196.862 279.368L194.958 272.632H193.806L191.774 279.368L189.822 272.632H188.382L190.958 281ZM205.248 281.144C207.136 281.144 208.528 280.264 208.816 278.584H207.488C207.312 279.56 206.56 280.04 205.264 280.04C203.552 280.04 202.64 278.984 202.576 277.08H208.88V276.648C208.88 273.656 207.056 272.488 205.12 272.488C202.816 272.488 201.2 274.248 201.2 276.776V276.904C201.2 279.48 202.88 281.144 205.248 281.144ZM202.624 276.008C202.848 274.52 203.76 273.592 205.12 273.592C206.496 273.592 207.392 274.28 207.52 276.008H202.624ZM215.078 281.144C217.382 281.144 218.886 279.384 218.886 276.824V276.696C218.886 274.088 217.27 272.488 215.078 272.488C213.862 272.488 212.726 273.224 212.246 274.04V268.632H210.918V281H212.246V279.624C212.726 280.456 213.718 281.144 215.078 281.144ZM214.95 280.04C213.318 280.04 212.198 279.032 212.198 276.888V276.76C212.198 274.616 213.382 273.592 214.934 273.592C216.342 273.592 217.51 274.648 217.51 276.76V276.888C217.51 278.92 216.614 280.04 214.95 280.04ZM223.541 281.144C225.573 281.144 226.613 280.12 226.613 278.6C226.613 276.824 225.397 276.44 223.669 276.12C222.133 275.848 221.717 275.544 221.717 274.792C221.717 274.072 222.341 273.592 223.301 273.592C224.357 273.592 224.869 273.992 225.061 274.904H226.341C226.117 273.096 224.821 272.488 223.317 272.488C222.005 272.488 220.485 273.288 220.485 274.84C220.485 276.296 221.221 276.904 223.397 277.304C224.693 277.544 225.349 277.832 225.349 278.712C225.349 279.608 224.789 280.04 223.525 280.04C222.181 280.04 221.653 279.416 221.557 278.424H220.261C220.341 280.136 221.541 281.144 223.541 281.144ZM228.669 281H229.997V272.632H228.669V281ZM229.309 270.888C229.789 270.888 230.189 270.488 230.189 270.008C230.189 269.528 229.789 269.128 229.309 269.128C228.829 269.128 228.429 269.528 228.429 270.008C228.429 270.488 228.829 270.888 229.309 270.888ZM235.259 281.112C235.803 281.112 236.123 281.032 236.395 280.936V279.816C236.107 279.928 235.787 279.992 235.371 279.992C234.699 279.992 234.331 279.592 234.331 278.776V273.752H236.283V272.632H234.331V270.728H233.003V272.632H231.803V273.752H233.003V278.904C233.003 280.216 233.739 281.112 235.259 281.112ZM241.827 281.144C243.715 281.144 245.107 280.264 245.395 278.584H244.067C243.891 279.56 243.139 280.04 241.843 280.04C240.131 280.04 239.219 278.984 239.155 277.08H245.459V276.648C245.459 273.656 243.635 272.488 241.699 272.488C239.395 272.488 237.779 274.248 237.779 276.776V276.904C237.779 279.48 239.459 281.144 241.827 281.144ZM239.203 276.008C239.427 274.52 240.339 273.592 241.699 273.592C243.075 273.592 243.971 274.28 244.099 276.008H239.203ZM251.763 281H253.091V272.632H251.763V281ZM252.403 270.888C252.883 270.888 253.283 270.488 253.283 270.008C253.283 269.528 252.883 269.128 252.403 269.128C251.923 269.128 251.523 269.528 251.523 270.008C251.523 270.488 251.923 270.888 252.403 270.888ZM258.401 281.144C260.433 281.144 261.473 280.12 261.473 278.6C261.473 276.824 260.257 276.44 258.529 276.12C256.993 275.848 256.577 275.544 256.577 274.792C256.577 274.072 257.201 273.592 258.161 273.592C259.217 273.592 259.729 273.992 259.921 274.904H261.201C260.977 273.096 259.681 272.488 258.177 272.488C256.865 272.488 255.345 273.288 255.345 274.84C255.345 276.296 256.081 276.904 258.257 277.304C259.553 277.544 260.209 277.832 260.209 278.712C260.209 279.608 259.649 280.04 258.385 280.04C257.041 280.04 256.513 279.416 256.417 278.424H255.121C255.201 280.136 256.401 281.144 258.401 281.144ZM269.827 281.144C271.059 281.144 271.811 280.728 272.435 279.944V281H273.763V275.48C273.763 273.144 272.307 272.488 270.707 272.488C269.091 272.488 267.571 273.192 267.395 275.096H268.723C268.851 274.072 269.491 273.592 270.643 273.592C271.923 273.592 272.435 274.152 272.435 275.48V276.088H271.235C269.091 276.088 267.043 276.744 267.043 278.68C267.043 280.392 268.275 281.144 269.827 281.144ZM269.955 280.088C268.787 280.088 268.371 279.544 268.371 278.68C268.371 277.448 269.603 277.032 271.283 277.032H272.435V278.072C272.435 279.368 271.363 280.088 269.955 280.088ZM280.531 281.144C282.835 281.144 284.339 279.384 284.339 276.824V276.696C284.339 274.088 282.723 272.488 280.531 272.488C279.315 272.488 278.179 273.224 277.699 274.04V268.632H276.371V281H277.699V279.624C278.179 280.456 279.171 281.144 280.531 281.144ZM280.403 280.04C278.771 280.04 277.651 279.032 277.651 276.888V276.76C277.651 274.616 278.835 273.592 280.387 273.592C281.795 273.592 282.963 274.648 282.963 276.76V276.888C282.963 278.92 282.067 280.04 280.403 280.04ZM289.891 280.04C288.195 280.04 287.155 278.792 287.155 276.888V276.76C287.155 274.84 288.211 273.592 289.891 273.592C291.555 273.592 292.627 274.84 292.627 276.776V276.888C292.627 278.776 291.571 280.04 289.891 280.04ZM289.875 281.144C292.259 281.144 294.003 279.4 294.003 276.872V276.744C294.003 274.232 292.259 272.488 289.891 272.488C287.523 272.488 285.779 274.248 285.779 276.76V276.888C285.779 279.336 287.491 281.144 289.875 281.144ZM298.891 281.144C300.235 281.144 301.163 280.456 301.547 279.672V281H302.875V272.632H301.547V277.704C301.547 279.208 300.427 279.992 299.243 279.992C297.931 279.992 297.307 279.336 297.307 277.864V272.632H295.979V277.928C295.979 280.232 297.227 281.144 298.891 281.144ZM308.103 281.112C308.647 281.112 308.967 281.032 309.239 280.936V279.816C308.951 279.928 308.631 279.992 308.215 279.992C307.543 279.992 307.175 279.592 307.175 278.776V273.752H309.127V272.632H307.175V270.728H305.847V272.632H304.647V273.752H305.847V278.904C305.847 280.216 306.583 281.112 308.103 281.112ZM153.189 302.112C153.733 302.112 154.053 302.032 154.325 301.936V300.816C154.037 300.928 153.717 300.992 153.301 300.992C152.629 300.992 152.261 300.592 152.261 299.776V294.752H154.213V293.632H152.261V291.728H150.933V293.632H149.733V294.752H150.933V299.904C150.933 301.216 151.669 302.112 153.189 302.112ZM159.82 301.04C158.124 301.04 157.084 299.792 157.084 297.888V297.76C157.084 295.84 158.14 294.592 159.82 294.592C161.484 294.592 162.556 295.84 162.556 297.776V297.888C162.556 299.776 161.5 301.04 159.82 301.04ZM159.804 302.144C162.188 302.144 163.932 300.4 163.932 297.872V297.744C163.932 295.232 162.188 293.488 159.82 293.488C157.452 293.488 155.708 295.248 155.708 297.76V297.888C155.708 300.336 157.42 302.144 159.804 302.144ZM174.383 302.144C176.687 302.144 178.191 300.384 178.191 297.824V297.696C178.191 295.088 176.575 293.488 174.383 293.488C173.167 293.488 172.031 294.224 171.551 295.04V289.632H170.223V302H171.551V300.624C172.031 301.456 173.023 302.144 174.383 302.144ZM174.255 301.04C172.623 301.04 171.503 300.032 171.503 297.888V297.76C171.503 295.616 172.687 294.592 174.239 294.592C175.647 294.592 176.815 295.648 176.815 297.76V297.888C176.815 299.92 175.919 301.04 174.255 301.04ZM183.678 302.144C185.566 302.144 186.958 301.264 187.246 299.584H185.918C185.742 300.56 184.99 301.04 183.694 301.04C181.982 301.04 181.07 299.984 181.006 298.08H187.31V297.648C187.31 294.656 185.486 293.488 183.55 293.488C181.246 293.488 179.63 295.248 179.63 297.776V297.904C179.63 300.48 181.31 302.144 183.678 302.144ZM181.054 297.008C181.278 295.52 182.19 294.592 183.55 294.592C184.926 294.592 185.822 295.28 185.95 297.008H181.054ZM193.582 302H194.91V296.928C194.91 295.424 196.014 294.64 197.246 294.64C198.59 294.64 199.214 295.296 199.214 296.768V302H200.542V296.864C200.542 294.432 199.326 293.488 197.598 293.488C196.222 293.488 195.294 294.176 194.91 294.96V289.632H193.582V302ZM206.569 302.144C208.457 302.144 209.849 301.264 210.137 299.584H208.809C208.633 300.56 207.881 301.04 206.585 301.04C204.873 301.04 203.961 299.984 203.897 298.08H210.201V297.648C210.201 294.656 208.377 293.488 206.441 293.488C204.137 293.488 202.521 295.248 202.521 297.776V297.904C202.521 300.48 204.201 302.144 206.569 302.144ZM203.945 297.008C204.169 295.52 205.081 294.592 206.441 294.592C207.817 294.592 208.713 295.28 208.841 297.008H203.945ZM212.271 302H213.615V289.632H212.271V302ZM216.364 302H217.708V289.632H216.364V302ZM222.522 302.144C223.754 302.144 224.506 301.728 225.13 300.944V302H226.458V296.48C226.458 294.144 225.002 293.488 223.402 293.488C221.786 293.488 220.266 294.192 220.09 296.096H221.418C221.546 295.072 222.186 294.592 223.338 294.592C224.618 294.592 225.13 295.152 225.13 296.48V297.088H223.93C221.786 297.088 219.738 297.744 219.738 299.68C219.738 301.392 220.97 302.144 222.522 302.144ZM222.65 301.088C221.482 301.088 221.066 300.544 221.066 299.68C221.066 298.448 222.298 298.032 223.978 298.032H225.13V299.072C225.13 300.368 224.058 301.088 222.65 301.088ZM235.397 302.144C236.629 302.144 237.381 301.728 238.005 300.944V302H239.333V296.48C239.333 294.144 237.877 293.488 236.277 293.488C234.661 293.488 233.141 294.192 232.965 296.096H234.293C234.421 295.072 235.061 294.592 236.213 294.592C237.493 294.592 238.005 295.152 238.005 296.48V297.088H236.805C234.661 297.088 232.613 297.744 232.613 299.68C232.613 301.392 233.845 302.144 235.397 302.144ZM235.525 301.088C234.357 301.088 233.941 300.544 233.941 299.68C233.941 298.448 235.173 298.032 236.853 298.032H238.005V299.072C238.005 300.368 236.933 301.088 235.525 301.088ZM245.414 302.144C247.43 302.144 248.886 300.8 249.062 298.992H247.83C247.686 300.352 246.614 301.04 245.43 301.04C243.814 301.04 242.694 299.952 242.694 297.904V297.776C242.694 295.808 243.862 294.592 245.382 294.592C246.534 294.592 247.494 295.088 247.702 296.416H249.014C248.758 294.288 247.126 293.488 245.382 293.488C243.142 293.488 241.318 295.216 241.318 297.776V297.904C241.318 300.496 243.078 302.144 245.414 302.144ZM254.539 302.144C256.555 302.144 258.011 300.8 258.187 298.992H256.955C256.811 300.352 255.739 301.04 254.555 301.04C252.939 301.04 251.819 299.952 251.819 297.904V297.776C251.819 295.808 252.987 294.592 254.507 294.592C255.659 294.592 256.619 295.088 256.827 296.416H258.139C257.883 294.288 256.251 293.488 254.507 293.488C252.267 293.488 250.443 295.216 250.443 297.776V297.904C250.443 300.496 252.203 302.144 254.539 302.144ZM263.616 302.144C265.504 302.144 266.896 301.264 267.184 299.584H265.856C265.68 300.56 264.928 301.04 263.632 301.04C261.92 301.04 261.008 299.984 260.944 298.08H267.248V297.648C267.248 294.656 265.424 293.488 263.488 293.488C261.184 293.488 259.568 295.248 259.568 297.776V297.904C259.568 300.48 261.248 302.144 263.616 302.144ZM260.992 297.008C261.216 295.52 262.128 294.592 263.488 294.592C264.864 294.592 265.76 295.28 265.888 297.008H260.992ZM271.956 302.144C273.988 302.144 275.028 301.12 275.028 299.6C275.028 297.824 273.812 297.44 272.084 297.12C270.548 296.848 270.132 296.544 270.132 295.792C270.132 295.072 270.756 294.592 271.716 294.592C272.772 294.592 273.284 294.992 273.476 295.904H274.756C274.532 294.096 273.236 293.488 271.732 293.488C270.42 293.488 268.9 294.288 268.9 295.84C268.9 297.296 269.636 297.904 271.812 298.304C273.108 298.544 273.764 298.832 273.764 299.712C273.764 300.608 273.204 301.04 271.94 301.04C270.596 301.04 270.068 300.416 269.972 299.424H268.676C268.756 301.136 269.956 302.144 271.956 302.144ZM279.643 302.144C281.675 302.144 282.715 301.12 282.715 299.6C282.715 297.824 281.499 297.44 279.771 297.12C278.235 296.848 277.819 296.544 277.819 295.792C277.819 295.072 278.443 294.592 279.403 294.592C280.459 294.592 280.971 294.992 281.163 295.904H282.443C282.219 294.096 280.923 293.488 279.419 293.488C278.107 293.488 276.587 294.288 276.587 295.84C276.587 297.296 277.323 297.904 279.499 298.304C280.795 298.544 281.451 298.832 281.451 299.712C281.451 300.608 280.891 301.04 279.627 301.04C278.283 301.04 277.755 300.416 277.659 299.424H276.363C276.443 301.136 277.643 302.144 279.643 302.144ZM284.771 302H286.099V293.632H284.771V302ZM285.411 291.888C285.891 291.888 286.291 291.488 286.291 291.008C286.291 290.528 285.891 290.128 285.411 290.128C284.931 290.128 284.531 290.528 284.531 291.008C284.531 291.488 284.931 291.888 285.411 291.888ZM292.977 302.144C295.281 302.144 296.785 300.384 296.785 297.824V297.696C296.785 295.088 295.169 293.488 292.977 293.488C291.761 293.488 290.625 294.224 290.145 295.04V289.632H288.817V302H290.145V300.624C290.625 301.456 291.617 302.144 292.977 302.144ZM292.849 301.04C291.217 301.04 290.097 300.032 290.097 297.888V297.76C290.097 295.616 291.281 294.592 292.833 294.592C294.241 294.592 295.409 295.648 295.409 297.76V297.888C295.409 299.92 294.513 301.04 292.849 301.04ZM298.88 302H300.224V289.632H298.88V302ZM306.366 302.144C308.254 302.144 309.646 301.264 309.934 299.584H308.606C308.43 300.56 307.678 301.04 306.382 301.04C304.67 301.04 303.758 299.984 303.694 298.08H309.998V297.648C309.998 294.656 308.174 293.488 306.238 293.488C303.934 293.488 302.318 295.248 302.318 297.776V297.904C302.318 300.48 303.998 302.144 306.366 302.144ZM303.742 297.008C303.966 295.52 304.878 294.592 306.238 294.592C307.614 294.592 308.51 295.28 308.638 297.008H303.742Z" fill="#3F7FEF"/>
<path d="M59.7438 150C59.7438 159.999 47 159.999 47 170.002C47 180.001 59.7438 180.001 59.7438 189.999C59.7438 199.998 47 199.998 47 209.996C47 219.995 59.7438 219.995 59.7438 229.994C59.7438 239.992 47 239.992 47 249.996C47 259.994 59.7438 259.994 59.7438 269.998C59.7438 279.997 47 279.997 47 290.001C47 300.004 59.7438 300.004 59.7438 310.003C59.7438 320.001 47 320.001 47 330" stroke="#E2EAF2" stroke-width="12" stroke-miterlimit="10" stroke-linecap="round"/>
<path d="M18.7438 150C18.7438 159.999 6 159.999 6 170.002C6 180.001 18.7438 180.001 18.7438 189.999C18.7438 199.998 6 199.998 6 209.996C6 219.995 18.7438 219.995 18.7438 229.994C18.7438 239.992 6 239.992 6 249.996C6 259.994 18.7438 259.994 18.7438 269.998C18.7438 279.997 6 279.997 6 290.001C6 300.004 18.7438 300.004 18.7438 310.003C18.7438 320.001 6 320.001 6 330" stroke="#E2EAF2" stroke-width="12" stroke-miterlimit="10" stroke-linecap="round"/>
<path d="M453.744 330C453.744 320.001 441 320.001 441 309.998C441 299.999 453.744 299.999 453.744 290.001C453.744 280.002 441 280.002 441 270.004C441 260.005 453.744 260.005 453.744 250.006C453.744 240.008 441 240.008 441 230.004C441 220.006 453.744 220.006 453.744 210.002C453.744 200.003 441 200.003 441 189.999C441 179.996 453.744 179.996 453.744 169.997C453.744 159.999 441 159.999 441 150" stroke="#E2EAF2" stroke-width="12" stroke-miterlimit="10" stroke-linecap="round"/>
<path d="M412.744 330C412.744 320.001 400 320.001 400 309.998C400 299.999 412.744 299.999 412.744 290.001C412.744 280.002 400 280.002 400 270.004C400 260.005 412.744 260.005 412.744 250.006C412.744 240.008 400 240.008 400 230.004C400 220.006 412.744 220.006 412.744 210.002C412.744 200.003 400 200.003 400 189.999C400 179.996 412.744 179.996 412.744 169.997C412.744 159.999 400 159.999 400 150" stroke="#E2EAF2" stroke-width="12" stroke-miterlimit="10" stroke-linecap="round"/>
<defs>
<filter id="filter0_di" x="83.9961" y="0" width="292" height="484" filterUnits="userSpaceOnUse" color-interpolation-filters="sRGB">
<feFlood flood-opacity="0" result="BackgroundImageFix"/>
<feColorMatrix in="SourceAlpha" type="matrix" values="0 0 0 0 0 0 0 0 0 0 0 0 0 0 0 0 0 0 127 0"/>
<feOffset dy="2"/>
<feGaussianBlur stdDeviation="8"/>
<feColorMatrix type="matrix" values="0 0 0 0 0 0 0 0 0 0 0 0 0 0 0 0 0 0 0.1 0"/>
<feBlend mode="normal" in2="BackgroundImageFix" result="effect1_dropShadow"/>
<feBlend mode="normal" in="SourceGraphic" in2="effect1_dropShadow" result="shape"/>
<feColorMatrix in="SourceAlpha" type="matrix" values="0 0 0 0 0 0 0 0 0 0 0 0 0 0 0 0 0 0 127 0" result="hardAlpha"/>
<feOffset/>
<feGaussianBlur stdDeviation="4"/>
<feComposite in2="hardAlpha" operator="arithmetic" k2="-1" k3="1"/>
<feColorMatrix type="matrix" values="0 0 0 0 0 0 0 0 0 0 0 0 0 0 0 0 0 0 0.05 0"/>
<feBlend mode="normal" in2="shape" result="effect2_innerShadow"/>
</filter>
</defs>
</svg>
